<?xml version="1.0" encoding="UTF-8"?>
<svg width="48px" height="48px" viewBox="0 0 48 48" version="1.1" xmlns="http://www.w3.org/2000/svg" xmlns:xlink="http://www.w3.org/1999/xlink">
    <!-- Generator: Sketch 57.1 (83088) - https://sketch.com -->
    <title>编组 2</title>
    <desc>Created with Sketch.</desc>
    <g id="页面-1" stroke="none" stroke-width="1" fill="none" fill-rule="evenodd">
        <g id="编组-2">
            <rect id="矩形" fill="#FFD100" x="0" y="0" width="48" height="48" rx="24"></rect>
            <path d="M29.8599736,9 C32.3963139,9 34.5310349,10.1483813 36.2642008,12.4451783 C36.2642008,14.6574307 33.6926721,18.5746086 28.5495376,24.1968296 C28.014088,25.7890877 27.7463672,26.8599708 27.7463672,27.4095112 L27.7463672,40.4504624 C27.7463672,40.8168226 27.5702351,41 27.2179657,41 L25.6116248,41 C23.17392,41 21.4830518,40.3729697 20.5389696,39.1188904 C20.5389696,38.9357102 20.2712488,38.8441215 19.7357992,38.8441215 C19.9189793,36.1809642 20.010568,34.2294206 20.010568,32.989432 L20.010568,24.4504624 C20.010568,23.8022865 17.9674357,20.6953162 13.8811096,15.1294584 C12.6270303,12.8044798 12,11.2052003 12,10.331572 C13.8036198,9.61294225 14.8745029,9.25363276 15.2126816,9.25363276 C16.6781227,9.26772354 18.8057985,12.0224296 21.5957728,17.5178336 C22.1312224,17.7010137 22.3989432,18.2364553 22.3989432,19.1241744 L22.673712,19.1241744 C26.9432182,12.374691 29.3386147,9 29.8599736,9 Z M29.8599736,9.52840159 C28.619985,11.2052043 28,12.0929101 28,12.1915456 L28.2747688,12.1915456 C30.4447489,11.3038265 32.135617,10.8599736 33.347424,10.8599736 C33.347424,10.451341 32.1849522,10.0074881 29.8599736,9.52840159 Z M12.5284016,10.8599736 C12.7679448,11.7476927 13.0427109,12.1915456 13.3527081,12.1915456 L13.6063408,12.1915456 C14.0995181,11.7970038 14.9872239,11.4376943 16.2694848,11.1136063 C15.9172153,10.5358844 15.7410832,10.0990768 15.7410832,9.80317041 L15.4663144,9.80317041 C14.9449556,9.80317041 13.9656611,10.1554346 12.5284016,10.8599736 Z M25.8652576,15.4042272 L26.1188904,15.4042272 C30.7547568,14.206511 33.0726552,12.867907 33.0726552,11.3883752 C33.2558354,11.3883752 33.347424,11.2967865 33.347424,11.1136063 L33.0726552,11.1136063 C28.2676994,12.4240488 25.8652576,13.8542415 25.8652576,15.4042272 Z M13.3527081,12.7199472 C13.5781594,13.3258507 13.9304247,13.8612923 14.4095112,14.326288 C14.4940559,14.326288 15.5578938,13.9740238 17.6010568,13.2694848 L17.6010568,12.994716 L16.5442536,11.3883752 C14.7547246,12.2760943 13.6908868,12.7199472 13.3527081,12.7199472 Z M14.6842801,14.8546896 C15.0929127,15.9255888 15.4451769,16.4610304 15.7410832,16.4610304 C15.8397187,16.4610304 16.9035566,16.1087662 18.9326288,15.4042272 L18.9326288,15.1294584 C18.5239962,14.2417393 18.0801433,13.7978864 17.6010568,13.7978864 C17.3756043,13.7978864 16.4033551,14.1501506 14.6842801,14.8546896 Z M24.2800528,17.7926024 C28.8877377,16.7357939 31.1915456,15.5803673 31.1915456,14.326288 L30.9379128,14.326288 C26.4993173,15.5662766 24.2800528,16.7217031 24.2800528,17.7926024 Z M16.015852,16.989432 C16.2694861,17.7221525 16.7062937,18.2575941 17.326288,18.5957728 L17.6010568,18.5957728 L20.2853369,17.2642008 C20.2853369,17.0951114 19.9260274,16.5596699 19.2073976,15.65786 C17.4178686,16.5455791 16.3540308,16.989432 16.015852,16.989432 Z M22.673712,19.652576 L22.1453104,19.652576 C21.9621303,19.652576 21.8705416,19.5609873 21.8705416,19.3778071 C19.7428339,19.9978014 18.678996,20.4486996 18.678996,20.7305152 C19.0171747,21.5336896 19.3694389,21.9775425 19.7357992,22.0620872 C25.9639237,20.2725582 29.0779392,18.7578221 29.0779392,17.5178336 L29.331572,16.989432 L29.331572,16.7146631 C25.49888,17.8419255 23.2796155,18.82122 22.673712,19.652576 Z M17.6010568,19.3778071 L18.1505945,20.1809775 C19.4469462,19.6455279 20.5953275,19.2932637 21.5957728,19.1241744 C21.1448678,18.2364553 20.7926036,17.7926024 20.5389696,17.7926024 C18.5803513,18.6098676 17.6010568,19.1382639 17.6010568,19.3778071 Z M20.010568,22.5904888 C20.3628375,23.1259384 20.5389696,23.7459234 20.5389696,24.4504624 C24.2589354,23.576834 26.1188904,22.5059509 26.1188904,21.2377807 C26.3866152,21.2377807 26.7529699,20.8009731 27.2179657,19.9273448 C24.7943516,20.9841532 22.3919097,21.871859 20.010568,22.5904888 Z M20.5389696,25.5284016 L20.5389696,27.4095112 C22.8216759,26.3245212 24.2448232,25.7820343 24.8084544,25.7820343 L24.8084544,23.668428 L24.5336856,23.668428 C21.8705283,24.4434209 20.5389696,25.0634059 20.5389696,25.5284016 Z M20.5389696,27.9167768 L20.5389696,30.0515192 C23.1034915,28.9806199 24.5266388,28.4451783 24.8084544,28.4451783 L24.8084544,26.0568032 C22.1875695,27.2967918 20.764421,27.9167768 20.5389696,27.9167768 Z M20.5389696,30.5799207 L20.5389696,32.7357992 C20.5389696,32.9048886 20.623513,32.989432 20.7926024,32.989432 L20.5389696,33.5178336 L20.5389696,35.652576 C23.3853071,34.3280427 24.8084544,33.5248803 24.8084544,33.2430647 L24.8084544,31.65786 L24.5336856,31.65786 C23.0259722,32.5455791 21.9621343,32.989432 21.34214,32.989432 L20.7926024,32.989432 L20.7926024,32.7357992 C21.0885087,32.7357992 22.4271127,32.2003576 24.8084544,31.1294584 L24.8084544,28.994716 L24.2800528,28.994716 C22.3777976,30.0515244 21.1307824,30.5799207 20.5389696,30.5799207 Z M20.2853369,38.0620872 C20.6235156,38.2311765 20.8841911,38.3157199 21.0673712,38.3157199 C21.8423641,37.7239072 23.0893793,37.1039222 24.8084544,36.4557464 L24.8084544,34.321004 L24.2800528,34.321004 C21.7859849,35.5187202 20.5389696,36.3148373 20.5389696,36.7093791 L20.2853369,38.0620872 Z M22.3989432,38.0620872 L22.3989432,38.3157199 L24.8084544,38.3157199 L24.8084544,36.984148 C23.5261935,37.7027777 22.7230311,38.0620872 22.3989432,38.0620872 Z" id="Y" fill="#000000" fill-rule="nonzero"></path>
        </g>
    </g>
</svg>