<?xml version="1.0" encoding="UTF-8"?>
<svg width="129px" height="184px" viewBox="0 0 129 184" version="1.1" xmlns="http://www.w3.org/2000/svg" xmlns:xlink="http://www.w3.org/1999/xlink">
    <!-- Generator: Sketch 57.1 (83088) - https://sketch.com -->
    <title>男</title>
    <desc>Created with Sketch.</desc>
    <g id="页面-1" stroke="none" stroke-width="1" fill="none" fill-rule="evenodd">
        <g id="注册(2/3)" transform="translate(-57.000000, -912.000000)" fill-rule="nonzero">
            <g id="女" transform="translate(57.000000, 495.000000)">
                <g id="男" transform="translate(0.000000, 417.000000)">
                    <polygon id="路径" fill="#FFD100" points="38.4625 165.601563 90.4625 165.201563 86.8625 127.201563 41.2625 127.601563 38.4625 165.601562"></polygon>
                    <path d="M14.4625,96.8015625 C18.4625,96.8015625 22.0625,100.801563 22.0625,106.001563 C22.0625,111.201563 18.8625,115.201563 14.4625,115.201563 C10.0625,115.201563 6.8625,111.201563 6.8625,106.001563 C6.8625,100.801563 10.0625,96.8015625 14.4625,96.8015625 Z M116.4625,92.8015625 C120.4625,92.8015625 124.0625,96.8015625 124.0625,102.001563 C124.0625,107.201563 120.8625,111.201563 116.4625,111.201563 C112.0625,111.201563 108.8625,107.201563 108.8625,102.001563 C109.2625,96.8015625 112.4625,92.8015625 116.4625,92.8015625 Z M88.0625,134.401562 C90.4625,133.601562 92.4625,135.201562 93.2625,137.201562 L96.8625,150.001563 C97.2625,152.401563 96.0625,154.801562 94.0625,155.201563 C91.6625,156.001563 89.6625,154.401563 88.8625,152.401563 L85.2625,139.601562 C84.4625,137.201562 85.6625,135.201562 88.0625,134.401562 Z M40.4625,134.401563 C38.0625,133.601562 35.6625,135.201562 35.2625,137.201562 L32.0625,150.401563 C31.6625,152.801563 32.8625,155.201563 34.8625,155.601562 C37.2625,156.401563 39.6625,154.801563 40.0625,152.801563 L43.6625,139.601562 C44.0625,137.201562 42.8625,135.201562 40.4625,134.401563 Z M64.4625,132.001562 C69.6625,132.001562 74.4625,134.401563 74.4625,137.201562 C74.4625,140.001562 70.0625,142.401563 64.4625,142.401563 C59.2625,142.401563 54.4625,140.001562 54.4625,137.201562 C54.8625,134.401563 58.8625,132.001562 64.4625,132.001562 Z" id="形状" fill="#FDDFDF"></path>
                    <path d="M85.6625,143.201563 L94.8625,139.601562 L89.2625,127.601562 L82.4625,130.001563 C82.4625,130.401562 85.6625,143.201563 85.6625,143.201563 Z M43.2625,142.401563 L34.0625,138.001563 L38.4625,127.201562 L48.8625,130.801562 L43.2625,142.401563 Z M41.2625,163.601562 C41.2625,165.201563 42.4625,182.001563 42.4625,182.001563 L60.4625,183.201562 L61.6625,170.401562 L70.4625,170.401562 L72.8625,182.401563 L88.8625,182.801562 L87.6625,159.201562 L43.2625,158.001563 C42.4625,158.001563 40.8625,162.001563 41.2625,163.601562 Z" id="形状" fill="#FFD100"></path>
                    <path d="M64.0625,145.601562 C65.2625,145.601562 65.6625,146.401563 65.6625,147.201562 C65.6625,148.401563 64.8625,148.801562 64.0625,148.801562 C62.8625,148.801562 62.4625,148.001563 62.4625,147.201562 C62.0625,146.401563 62.8625,145.601562 64.0625,145.601562 Z M64.0625,152.801563 C65.2625,152.801563 65.6625,153.601562 65.6625,154.401563 C65.6625,155.601562 64.8625,156.001563 64.0625,156.001563 C62.8625,156.001563 62.4625,155.201563 62.4625,154.401563 C62.0625,153.601562 62.8625,152.801563 64.0625,152.801563 Z" id="形状" fill="#FFFFFF"></path>
                    <path d="M64.0625,0.0015625 C99.2625,0.0015625 128.0625,28.8015625 128.0625,64.0015625 C128.0625,99.2015625 99.2625,128.001563 64.0625,128.001563 C28.8625,128.001563 0.0625,99.6015625 0.0625,64.4015625 C0.0625,28.8015625 28.4625,0.0015625 64.0625,0.0015625 Z" id="形状" fill="#13100E"></path>
                    <polygon id="路径" fill="#3156D9" points="38.4625 163.601562 90.4625 163.601562 90.4625 165.201562 38.4625 165.201562"></polygon>
                    <path d="M64.4625,38.4015625 C95.6625,38.4015625 121.2625,60.0015625 121.2625,86.8015625 C121.2625,113.601562 96.0625,135.201562 64.4625,135.201562 C32.8625,135.201562 8.0625,113.201562 8.0625,86.8015625 C8.0625,60.0015625 33.2625,38.4015625 64.4625,38.4015625 Z" id="路径" fill="#FDDFDF"></path>
                    <path d="M18.8625,78.4015625 L42.4625,64.8015625 L36.0625,79.2015625 L75.6625,59.2015625 L71.6625,80.0015625 L101.6625,55.2015625 L112.8625,76.4015625 L126.8625,61.2015625 L79.6625,34.0015625 L32.8625,38.4015625 L10.4625,51.6015625 L0.8625,67.6015625 L4.8625,83.6015625 L10.0625,71.6015625 C10.4625,71.2015625 18.8625,78.4015625 18.8625,78.4015625 L18.8625,78.4015625 Z" id="路径" fill="#13100E"></path>
                    <path d="M28.0625,94.0015625 C28.0625,97.2015625 30.4625,99.6015625 33.6625,99.6015625 C36.8625,99.6015625 39.2625,97.2015625 39.2625,94.0015625 C39.2625,90.8015625 36.8625,88.4015625 33.6625,88.4015625 C30.4625,88.4015625 28.0625,90.8015625 28.0625,94.0015625 Z M87.6625,94.0015625 C87.6625,97.2015625 90.0625,99.6015625 93.2625,99.6015625 C96.4625,99.6015625 98.8625,97.2015625 98.8625,94.0015625 C98.8625,90.8015625 96.4625,88.4015625 93.2625,88.4015625 C90.0625,88.4015625 87.6625,90.8015625 87.6625,94.0015625 Z" id="形状" fill="#454545"></path>
                    <path d="M31.6625,91.6015625 C32.4625,91.6015625 32.8625,92.0015625 32.8625,92.8015625 C32.8625,93.6015625 32.4625,94.0015625 31.6625,94.0015625 C30.8625,94.0015625 30.4625,93.6015625 30.4625,92.8015625 C30.4625,92.0015625 30.8625,91.6015625 31.6625,91.6015625 Z M92.0625,91.6015625 C92.8625,91.6015625 93.2625,92.0015625 93.2625,92.8015625 C93.2625,93.6015625 92.8625,94.0015625 92.0625,94.0015625 C91.2625,94.0015625 90.8625,93.6015625 90.8625,92.8015625 C90.8625,92.0015625 91.6625,91.6015625 92.0625,91.6015625 Z" id="形状" fill="#FFFFFF"></path>
                    <path d="M34.0625,113.201563 C26.4625,113.201563 20.4625,107.201562 20.4625,99.6015625 C20.4625,92.0015625 26.4625,86.0015625 34.0625,86.0015625 C41.6625,86.0015625 47.6625,92.0015625 47.6625,99.6015625 C47.6625,107.201563 41.6625,113.201563 34.0625,113.201563 L34.0625,113.201563 Z M34.0625,87.6015625 C27.2625,87.6015625 22.0625,92.8015625 22.0625,99.6015625 C22.0625,106.401563 27.2625,111.601562 34.0625,111.601562 C40.8625,111.601562 46.0625,106.401563 46.0625,99.6015625 C46.0625,92.8015625 40.8625,87.6015625 34.0625,87.6015625 L34.0625,87.6015625 Z M93.2625,113.201563 C85.6625,113.201563 79.6625,107.201562 79.6625,99.6015625 C79.6625,92.0015625 85.6625,86.0015625 93.2625,86.0015625 C100.8625,86.0015625 106.8625,92.0015625 106.8625,99.6015625 C106.8625,107.201563 101.2625,113.201563 93.2625,113.201563 L93.2625,113.201563 Z M93.2625,87.6015625 C86.4625,87.6015625 81.2625,92.8015625 81.2625,99.6015625 C81.2625,106.401563 86.4625,111.601562 93.2625,111.601562 C100.0625,111.601562 105.2625,106.401563 105.2625,99.6015625 C105.2625,92.8015625 100.0625,87.6015625 93.2625,87.6015625 L93.2625,87.6015625 Z" id="形状" fill="#13100E"></path>
                    <path d="M46.8625,117.201562 L46.0625,117.201562 C45.6625,116.801562 45.6625,116.401562 46.0625,116.001562 L50.4625,111.601562 C50.8625,111.201562 51.2625,111.201562 51.6625,111.601562 C52.0625,112.001562 52.0625,112.401562 51.6625,112.801562 L47.2625,116.801562 C46.8625,116.801562 46.8625,117.201562 46.8625,117.201562 Z M81.6625,117.201562 L81.2625,117.201562 L76.8625,113.201562 C76.4625,112.801562 76.4625,112.401562 76.8625,112.001562 C77.2625,111.601562 77.6625,111.601562 78.0625,112.001562 L82.4625,116.001562 C82.8625,116.401562 82.8625,116.801562 82.4625,117.201562 L81.6625,117.201562 Z M64.4625,122.401562 C56.4625,122.401562 49.6625,117.601562 49.2625,117.201562 C48.8625,116.801562 48.8625,116.401562 49.2625,116.001562 C49.6625,115.601562 50.0625,115.601562 50.4625,116.001562 C50.4625,116.001562 57.2625,120.801562 64.4625,120.801562 C71.6625,120.801562 77.6625,115.601562 77.6625,115.601562 C78.0625,115.201562 78.4625,115.201562 78.8625,115.601562 C79.2625,116.001562 79.2625,116.401562 78.8625,116.801562 C78.4625,117.201562 72.4625,122.401562 64.4625,122.401562 L64.4625,122.401562 Z" id="形状" fill="#EAA99A"></path>
                    <path d="M124.8625,86.0015625 C125.2625,86.4015625 125.2625,86.8015625 124.8625,87.2015625 L114.4625,102.801563 L106.4625,102.801563 C106.0625,102.801563 105.6625,102.401563 105.6625,102.001563 C105.6625,101.601563 106.0625,101.201563 106.4625,101.201563 L113.2625,101.201563 L123.6625,86.0015625 C124.0625,85.6015625 124.4625,85.6015625 124.8625,86.0015625 Z M6.4625,84.4015625 C6.8625,84.4015625 7.2625,84.4015625 7.6625,84.8015625 L14.8625,98.8015625 L21.2625,98.8015625 C21.6625,98.8015625 22.0625,99.2015625 22.0625,99.6015625 C22.0625,100.001563 21.6625,100.401563 21.2625,100.401563 L14.4625,100.401563 C14.0625,100.401563 13.6625,100.401563 13.6625,100.001563 L6.0625,85.6015625 C6.0625,85.2015625 6.0625,84.8015625 6.4625,84.4015625 Z M29.6625,80.4015625 C39.2625,78.8015625 45.2625,83.6015625 45.6625,84.0015625 C46.0625,84.4015625 46.0625,85.6015625 45.6625,86.4015625 C45.2625,86.8015625 44.0625,86.8015625 43.2625,86.4015625 C43.2625,86.0055625 34.63762,79.3369225 22.4334148,86.1897421 L22.0625,86.4015625 L21.2625,86.4015625 C20.4625,86.4015625 20.0625,86.4015625 19.2625,86.0015625 C18.8625,85.2015625 19.2625,84.0015625 20.0625,83.6015625 C20.8625,83.6015625 24.0625,85.2015625 22.8625,80.8015625 C22.8625,79.2015625 28.0625,80.4015625 29.6625,80.4015625 Z M103.6625,79.2015625 C102.4625,83.6015625 105.6625,82.0015625 106.4625,82.0015625 C107.2625,82.4015625 107.6625,83.6015625 107.2625,84.4015625 C106.4625,84.8015625 105.6625,84.8015625 105.2625,84.8015625 L104.4625,84.8015625 C92.0625,77.6015625 83.2625,84.4015625 83.2625,84.8015625 C82.4625,85.2015625 81.2625,85.2015625 80.8625,84.8015625 C80.4625,84.0015625 80.4625,82.8015625 80.8625,82.4015625 C81.2625,82.0015625 87.2625,77.2015625 96.8625,78.8015625 C98.4625,78.8015625 103.6625,77.6015625 103.6625,79.2015625 Z" id="路径-2" fill="#13100E"></path>
                </g>
            </g>
        </g>
    </g>
</svg>