<?xml version="1.0" encoding="UTF-8"?>
<svg width="351px" height="106px" viewBox="0 0 351 106" version="1.1" xmlns="http://www.w3.org/2000/svg" xmlns:xlink="http://www.w3.org/1999/xlink">
    <!-- Generator: Sketch 60 (88103) - https://sketch.com -->
    <title>校园网红达人粉丝榜</title>
    <desc>Created with Sketch.</desc>
    <defs>
        <linearGradient x1="3.91999299%" y1="46.9822522%" x2="90.5369973%" y2="53.6047393%" id="linearGradient-1">
            <stop stop-color="#0E0E0E" offset="0%"></stop>
            <stop stop-color="#4B246E" offset="50.1557221%"></stop>
            <stop stop-color="#EA0D23" offset="100%"></stop>
        </linearGradient>
    </defs>
    <g id="页面-1" stroke="none" stroke-width="1" fill="none" fill-rule="evenodd">
        <path d="M28.2927219,16.7423077 L28.42,16.74 C29.86,16.62 31.52,16.5 33.4,16.38 C35.28,16.26 37.2,16.16 39.16,16.08 C41.12,16 43.01,15.94 44.83,15.9 C46.65,15.86 48.22,15.86 49.54,15.9 C50.06,15.9 50.49,15.57 50.83,14.91 C51.17,14.25 51.36,13.5 51.4,12.66 C51.44,11.82 51.33,11.04 51.07,10.32 C50.81,9.6 50.36,9.2 49.72,9.12 C48.8,9 47.72,8.9 46.48,8.82 C45.24,8.74 43.92,8.7 42.52,8.7 C42.64,8.1 42.5,7.6 42.1,7.2 C41.42,6.52 40.67,5.88 39.85,5.28 C39.03,4.68 38.24,4.1 37.48,3.54 C37,3.18 36.49,3.1 35.95,3.3 C35.41,3.5 34.95,3.82 34.57,4.26 C34.19,4.7 33.96,5.19 33.88,5.73 C33.8,6.27 33.96,6.68 34.36,6.96 L34.36,6.96 L36.64,8.7 C35.04,8.78 33.53,8.86 32.11,8.94 C30.69,9.02 29.46,9.12 28.42,9.24 C27.7,9.32 27.19,9.76 26.89,10.56 C26.59,11.36 26.46,12.23 26.5,13.17 C26.54,14.11 26.73,14.95 27.07,15.69 C27.41,16.43 27.86,16.78 28.42,16.74 L28.2927219,16.7423077 Z M15.04,43.14 C15.88,43.14 16.66,42.97 17.38,42.63 C18.1,42.29 18.48,41.76 18.52,41.04 L18.52,41.04 L18.52,39.12 C18.52,38.28 18.48,37.32 18.4,36.24 C19.08,36.44 19.71,36.63 20.29,36.81 C20.87,36.99 21.4,37.14 21.88,37.26 C22.4,37.38 22.85,37.23 23.23,36.81 C23.61,36.39 23.89,35.88 24.07,35.28 C24.25,34.68 24.3,34.11 24.22,33.57 C24.14,33.03 23.92,32.72 23.56,32.64 C22.88,32.48 22.08,32.28 21.16,32.04 C20.24,31.8 19.26,31.52 18.22,31.2 C18.14,30.32 18.09,29.43 18.07,28.53 C18.05,27.63 18.02,26.72 17.98,25.8 C18.74,25.8 19.49,25.81 20.23,25.83 C20.97,25.85 21.74,25.88 22.54,25.92 C23.22,25.96 23.79,25.69 24.25,25.11 C24.71,24.53 25.06,23.8 25.3,22.92 C25.54,22.04 25.68,21.07 25.72,20.01 C25.76,18.95 25.68,17.94 25.48,16.98 C25.28,16.02 24.96,15.19 24.52,14.49 C24.08,13.79 23.52,13.36 22.84,13.2 C21.96,13 21.06,12.84 20.14,12.72 C19.22,12.6 18.26,12.5 17.26,12.42 C17.22,12.1 17.19,11.82 17.17,11.58 C17.15,11.34 17.14,11.12 17.14,10.92 C17.1,10.44 16.83,10.07 16.33,9.81 C15.83,9.55 15.28,9.43 14.68,9.45 C14.08,9.47 13.53,9.61 13.03,9.87 C12.53,10.13 12.28,10.52 12.28,11.04 L12.28,11.04 L12.28,12.36 C10.84,12.44 9.39,12.55 7.93,12.69 C6.47,12.83 5.04,13 3.64,13.2 C2.92,13.32 2.34,13.75 1.9,14.49 C1.46,15.23 1.13,16.11 0.91,17.13 C0.69,18.15 0.59,19.25 0.61,20.43 C0.63,21.61 0.76,22.68 1,23.64 C1.24,24.6 1.58,25.39 2.02,26.01 C2.46,26.63 3,26.9 3.64,26.82 L3.64,26.82 L5.26,26.64 C5.06,27.48 4.89,28.28 4.75,29.04 C4.61,29.8 4.47,30.6 4.33,31.44 C4.19,32.28 4.05,33.21 3.91,34.23 C3.77,35.25 3.62,36.42 3.46,37.74 C3.34,38.54 3.6,39.14 4.24,39.54 C4.88,39.94 5.61,40.19 6.43,40.29 C7.25,40.39 8.01,40.32 8.71,40.08 C9.41,39.84 9.78,39.48 9.82,39 C9.9,37.8 9.97,36.73 10.03,35.79 C10.09,34.85 10.16,33.96 10.24,33.12 L10.24,33.12 L12.16,33.9 C12.12,35.54 12.08,36.99 12.04,38.25 C12,39.51 11.94,40.44 11.86,41.04 C11.78,41.72 12.08,42.24 12.76,42.6 C13.44,42.96 14.2,43.14 15.04,43.14 Z M51.1,26.58 C51.5,26.86 51.97,26.84 52.51,26.52 C53.05,26.2 53.53,25.76 53.95,25.2 C54.37,24.64 54.63,24.05 54.73,23.43 C54.83,22.81 54.64,22.32 54.16,21.96 C52.52,20.84 51.01,19.85 49.63,18.99 C48.25,18.13 46.82,17.38 45.34,16.74 C44.82,16.54 44.31,16.6 43.81,16.92 C43.31,17.24 42.91,17.65 42.61,18.15 C42.31,18.65 42.14,19.18 42.1,19.74 C42.06,20.3 42.26,20.72 42.7,21 C44.1,21.92 45.47,22.82 46.81,23.7 C48.15,24.58 49.58,25.54 51.1,26.58 Z M28.54,29.07 C29.18,29.25 29.66,29.16 29.98,28.8 C31.26,27.32 32.38,26.05 33.34,24.99 C34.3,23.93 35.36,22.78 36.52,21.54 C36.88,21.14 36.98,20.64 36.82,20.04 C36.66,19.44 36.36,18.91 35.92,18.45 C35.48,17.99 34.97,17.67 34.39,17.49 C33.81,17.31 33.28,17.42 32.8,17.82 C31.56,18.86 30.43,19.9 29.41,20.94 C28.39,21.98 27.18,23.26 25.78,24.78 C25.34,25.26 25.26,25.81 25.54,26.43 C25.82,27.05 26.23,27.6 26.77,28.08 C27.31,28.56 27.9,28.89 28.54,29.07 Z M46.54,43.62 C47.18,44.06 47.86,44.11 48.58,43.77 C49.3,43.43 49.88,42.91 50.32,42.21 C50.76,41.51 51,40.77 51.04,39.99 C51.08,39.21 50.78,38.62 50.14,38.22 C49.18,37.66 48.07,37.03 46.81,36.33 C45.55,35.63 44.24,34.92 42.88,34.2 C44.04,33.04 45.11,31.99 46.09,31.05 C47.07,30.11 47.84,29.38 48.4,28.86 C48.76,28.54 48.88,28.1 48.76,27.54 C48.64,26.98 48.38,26.48 47.98,26.04 C47.58,25.6 47.11,25.28 46.57,25.08 C46.03,24.88 45.52,24.98 45.04,25.38 C44.2,26.06 43.13,26.96 41.83,28.08 C40.53,29.2 39.18,30.4 37.78,31.68 C36.82,31.24 35.89,30.82 34.99,30.42 C34.09,30.02 33.26,29.66 32.5,29.34 C31.82,29.1 31.21,29.18 30.67,29.58 C30.13,29.98 29.71,30.49 29.41,31.11 C29.11,31.73 29,32.37 29.08,33.03 C29.16,33.69 29.5,34.14 30.1,34.38 L30.1,34.38 L33.22,35.88 L29.38,39.54 C28.9,40.02 28.81,40.57 29.11,41.19 C29.41,41.81 29.87,42.35 30.49,42.81 C31.11,43.27 31.77,43.59 32.47,43.77 C33.17,43.95 33.68,43.86 34,43.5 C34.44,42.98 35.05,42.31 35.83,41.49 C36.61,40.67 37.48,39.76 38.44,38.76 C40,39.64 41.5,40.51 42.94,41.37 C44.38,42.23 45.58,42.98 46.54,43.62 Z M12.22,29.22 L11.02,28.68 C10.98,28.68 10.94,28.67 10.9,28.65 C10.86,28.63 10.82,28.62 10.78,28.62 L10.78,28.62 L11.26,26.1 C11.42,26.06 11.58,26.04 11.74,26.04 L11.74,26.04 L12.28,26.04 C12.28,26.6 12.27,27.13 12.25,27.63 C12.23,28.13 12.22,28.66 12.22,29.22 L12.22,29.22 Z M88.21,45.39 C90.31,45.41 92.35,45.36 94.33,45.24 C96.31,45.12 98.15,44.9 99.85,44.58 C101.55,44.26 103,43.86 104.2,43.38 C105,43.06 105.69,42.3 106.27,41.1 C106.85,39.9 107.33,38.42 107.71,36.66 C108.09,34.9 108.37,32.94 108.55,30.78 C108.73,28.62 108.81,26.4 108.79,24.12 C108.77,21.84 108.66,19.58 108.46,17.34 C108.26,15.1 107.97,13.04 107.59,11.16 C107.21,9.28 106.73,7.64 106.15,6.24 C105.57,4.84 104.92,3.84 104.2,3.24 C103.4,2.6 102.16,2.08 100.48,1.68 C98.8,1.28 96.9,0.98 94.78,0.78 C92.66,0.58 90.43,0.49 88.09,0.51 C85.75,0.53 83.5,0.63 81.34,0.81 C79.18,0.99 77.22,1.25 75.46,1.59 C73.7,1.93 72.36,2.34 71.44,2.82 C70.52,3.3 69.73,4.57 69.07,6.63 C68.41,8.69 67.92,11.15 67.6,14.01 C67.28,16.87 67.12,19.92 67.12,23.16 C67.12,26.4 67.31,29.44 67.69,32.28 C68.07,35.12 68.63,37.55 69.37,39.57 C70.11,41.59 71.08,42.82 72.28,43.26 C73.44,43.7 74.87,44.08 76.57,44.4 C78.27,44.72 80.11,44.96 82.09,45.12 C84.07,45.28 86.11,45.37 88.21,45.39 Z M89.7446875,40.2685714 L88.99,40.26 C86.97,40.22 85.02,40.06 83.14,39.78 C81.26,39.5 79.74,39.12 78.58,38.64 C77.82,38.32 77.18,37.41 76.66,35.91 C76.14,34.41 75.74,32.62 75.46,30.54 C75.18,28.46 75.02,26.23 74.98,23.85 C74.94,21.47 75.02,19.24 75.22,17.16 C75.42,15.08 75.72,13.29 76.12,11.79 C76.52,10.29 77.02,9.36 77.62,9 C78.22,8.64 79.1,8.33 80.26,8.07 C81.42,7.81 82.73,7.6 84.19,7.44 C85.65,7.28 87.16,7.18 88.72,7.14 C90.28,7.1 91.77,7.14 93.19,7.26 C94.61,7.38 95.88,7.58 97,7.86 C98.12,8.14 98.94,8.52 99.46,9 C100.1,9.6 100.64,10.7 101.08,12.3 C101.52,13.9 101.86,15.75 102.1,17.85 C102.34,19.95 102.47,22.16 102.49,24.48 C102.51,26.8 102.41,28.96 102.19,30.96 C101.97,32.96 101.63,34.68 101.17,36.12 C100.71,37.56 100.14,38.44 99.46,38.76 C98.3,39.32 96.77,39.72 94.87,39.96 C92.97,40.2 91.01,40.3 88.99,40.26 L89.7446875,40.2685714 Z M80.1751852,20.8244444 L80.32,20.82 C81.68,20.7 83.01,20.59 84.31,20.49 C85.61,20.39 86.92,20.33 88.24,20.31 C89.56,20.29 90.92,20.28 92.32,20.28 C93.72,20.28 95.24,20.3 96.88,20.34 C97.56,20.38 98.1,19.95 98.5,19.05 C98.9,18.15 99.13,17.15 99.19,16.05 C99.25,14.95 99.11,13.92 98.77,12.96 C98.43,12 97.86,11.46 97.06,11.34 C94.18,10.9 91.34,10.66 88.54,10.62 C85.74,10.58 83,10.72 80.32,11.04 C79.72,11.12 79.24,11.42 78.88,11.94 C78.52,12.46 78.26,13.09 78.1,13.83 C77.94,14.57 77.89,15.36 77.95,16.2 C78.01,17.04 78.14,17.81 78.34,18.51 C78.54,19.21 78.81,19.78 79.15,20.22 C79.49,20.66 79.88,20.86 80.32,20.82 L80.1751852,20.8244444 Z M92.47,37.17 C93.37,37.71 94.48,37.84 95.8,37.56 C97.12,37.28 98.6,36.64 100.24,35.64 C100.6,35.44 100.79,35.12 100.81,34.68 C100.83,34.24 100.75,33.83 100.57,33.45 C100.39,33.07 100.13,32.77 99.79,32.55 C99.45,32.33 99.06,32.34 98.62,32.58 C96.82,33.58 95.62,33.73 95.02,33.03 C94.42,32.33 94.34,30.7 94.78,28.14 C95.74,28.14 96.67,28.15 97.57,28.17 C98.47,28.19 99.28,28.2 100,28.2 C100.36,28.2 100.65,27.97 100.87,27.51 C101.09,27.05 101.22,26.55 101.26,26.01 C101.3,25.47 101.24,24.97 101.08,24.51 C100.92,24.05 100.62,23.8 100.18,23.76 C98.86,23.64 97.2,23.54 95.2,23.46 C93.2,23.38 91.14,23.34 89.02,23.34 C86.9,23.34 84.83,23.36 82.81,23.4 C80.79,23.44 79.1,23.5 77.74,23.58 C77.18,23.62 76.78,23.91 76.54,24.45 C76.3,24.99 76.19,25.56 76.21,26.16 C76.23,26.76 76.35,27.31 76.57,27.81 C76.79,28.31 77.12,28.54 77.56,28.5 L77.56,28.5 L82.42,28.32 C81.86,29.6 81.38,30.81 80.98,31.95 C80.58,33.09 80.2,34.24 79.84,35.4 C79.68,35.88 79.81,36.29 80.23,36.63 C80.65,36.97 81.14,37.21 81.7,37.35 C82.26,37.49 82.81,37.52 83.35,37.44 C83.89,37.36 84.22,37.14 84.34,36.78 C84.78,35.46 85.23,34.05 85.69,32.55 C86.15,31.05 86.64,29.6 87.16,28.2 C87.68,28.2 88.19,28.19 88.69,28.17 C89.19,28.15 89.7,28.14 90.22,28.14 C90.02,30.66 90.12,32.66 90.52,34.14 C90.92,35.62 91.57,36.63 92.47,37.17 Z M132.03625,44.7309375 L132.49,44.73 C133.71,44.71 134.83,44.57 135.85,44.31 C136.87,44.05 137.72,43.69 138.4,43.23 C139.08,42.77 139.4,42.22 139.36,41.58 C139.24,39.98 139.13,38.16 139.03,36.12 C138.93,34.08 138.86,31.99 138.82,29.85 C138.78,27.71 138.76,25.6 138.76,23.52 C138.76,21.44 138.81,19.54 138.91,17.82 C139.01,16.1 139.14,14.64 139.3,13.44 C139.46,12.24 139.68,11.44 139.96,11.04 C140.28,10.6 140.95,10.22 141.97,9.9 C142.99,9.58 144.19,9.33 145.57,9.15 C146.95,8.97 148.43,8.86 150.01,8.82 C151.59,8.78 153.11,8.82 154.57,8.94 C156.03,9.06 157.34,9.28 158.5,9.6 C159.66,9.92 160.5,10.32 161.02,10.8 C161.66,11.44 162.2,12.56 162.64,14.16 C163.08,15.76 163.42,17.62 163.66,19.74 C163.9,21.86 164.03,24.09 164.05,26.43 C164.07,28.77 164,31 163.84,33.12 C163.68,35.24 163.43,37.12 163.09,38.76 C162.75,40.4 162.32,41.56 161.8,42.24 C161.48,42.64 161.42,42.98 161.62,43.26 C161.82,43.54 162.16,43.77 162.64,43.95 C163.12,44.13 163.69,44.24 164.35,44.28 C165.01,44.32 165.65,44.3 166.27,44.22 C166.89,44.14 167.44,44 167.92,43.8 C168.4,43.6 168.7,43.34 168.82,43.02 C169.22,41.9 169.56,40.31 169.84,38.25 C170.12,36.19 170.32,33.91 170.44,31.41 C170.56,28.91 170.59,26.31 170.53,23.61 C170.47,20.91 170.27,18.35 169.93,15.93 C169.59,13.51 169.11,11.36 168.49,9.48 C167.87,7.6 167.08,6.2 166.12,5.28 C165.24,4.48 163.79,3.81 161.77,3.27 C159.75,2.73 157.44,2.33 154.84,2.07 C152.24,1.81 149.49,1.68 146.59,1.68 C143.69,1.68 140.96,1.84 138.4,2.16 C135.84,2.48 133.58,2.96 131.62,3.6 C129.66,4.24 128.32,5.04 127.6,6 C127,6.76 126.51,7.94 126.13,9.54 C125.75,11.14 125.45,12.98 125.23,15.06 C125.01,17.14 124.86,19.37 124.78,21.75 C124.7,24.13 124.67,26.49 124.69,28.83 C124.71,31.17 124.76,33.4 124.84,35.52 C124.92,37.64 125.02,39.48 125.14,41.04 C125.22,41.92 125.63,42.63 126.37,43.17 C127.11,43.71 128.01,44.11 129.07,44.37 C130.13,44.63 131.27,44.75 132.49,44.73 L132.03625,44.7309375 Z M141.25,36.6 C141.79,36.8 142.33,36.87 142.87,36.81 C143.41,36.75 143.74,36.5 143.86,36.06 C144.18,35.02 144.68,33.64 145.36,31.92 L145.36,31.92 L146.38,34.26 C146.7,35.06 147.2,35.52 147.88,35.64 C148.56,35.76 149.22,35.66 149.86,35.34 C150.5,35.02 151,34.55 151.36,33.93 C151.72,33.31 151.72,32.64 151.36,31.92 C150.36,29.84 149.22,27.62 147.94,25.26 C148.5,23.82 149.05,22.49 149.59,21.27 C150.13,20.05 150.58,19.08 150.94,18.36 C151.1,17.96 151.06,17.56 150.82,17.16 C150.58,16.76 150.25,16.45 149.83,16.23 C149.41,16.01 148.97,15.92 148.51,15.96 C148.05,16 147.7,16.26 147.46,16.74 L147.46,16.74 L145.48,20.88 C144.8,19.8 144.14,18.78 143.5,17.82 C143.14,17.3 142.67,17.06 142.09,17.1 C141.51,17.14 140.97,17.33 140.47,17.67 C139.97,18.01 139.59,18.45 139.33,18.99 C139.07,19.53 139.1,20.04 139.42,20.52 C139.86,21.28 140.38,22.2 140.98,23.28 C141.58,24.36 142.2,25.5 142.84,26.7 C142.16,28.22 141.54,29.64 140.98,30.96 C140.42,32.28 139.98,33.34 139.66,34.14 C139.46,34.7 139.54,35.2 139.9,35.64 C140.26,36.08 140.71,36.4 141.25,36.6 Z M153.55,36.48 C154.09,36.68 154.63,36.75 155.17,36.69 C155.71,36.63 156.04,36.4 156.16,36 L156.16,36 L157.48,32.34 L158.26,34.32 C158.54,35.12 159.03,35.6 159.73,35.76 C160.43,35.92 161.09,35.85 161.71,35.55 C162.33,35.25 162.83,34.79 163.21,34.17 C163.59,33.55 163.62,32.88 163.3,32.16 C162.86,31.2 162.37,30.14 161.83,28.98 C161.29,27.82 160.72,26.66 160.12,25.5 C160.72,24.06 161.29,22.72 161.83,21.48 C162.37,20.24 162.82,19.24 163.18,18.48 C163.34,18.08 163.3,17.68 163.06,17.28 C162.82,16.88 162.48,16.56 162.04,16.32 C161.6,16.08 161.15,15.98 160.69,16.02 C160.23,16.06 159.88,16.32 159.64,16.8 L159.64,16.8 L157.72,20.88 L155.74,17.52 C155.38,17 154.91,16.74 154.33,16.74 C153.75,16.74 153.2,16.9 152.68,17.22 C152.16,17.54 151.76,17.97 151.48,18.51 C151.2,19.05 151.2,19.56 151.48,20.04 C151.96,20.84 152.51,21.85 153.13,23.07 C153.75,24.29 154.38,25.56 155.02,26.88 C154.34,28.32 153.74,29.68 153.22,30.96 C152.7,32.24 152.28,33.28 151.96,34.08 C151.76,34.64 151.84,35.13 152.2,35.55 C152.56,35.97 153.01,36.28 153.55,36.48 Z M187.15,33.6 C188.41,34.36 190.43,34.61 193.21,34.35 C195.99,34.09 199.28,33.22 203.08,31.74 C203.76,31.5 204.17,31.08 204.31,30.48 C204.45,29.88 204.41,29.31 204.19,28.77 C203.97,28.23 203.6,27.79 203.08,27.45 C202.56,27.11 201.98,27.08 201.34,27.36 C198.7,28.44 196.74,29.06 195.46,29.22 C194.18,29.38 193.6,29.15 193.72,28.53 C193.84,27.91 194.68,26.96 196.24,25.68 C197.8,24.4 200.1,22.86 203.14,21.06 C203.9,20.62 204.28,20.08 204.28,19.44 C204.28,18.8 204.07,18.23 203.65,17.73 C203.23,17.23 202.68,16.87 202,16.65 C201.32,16.43 200.66,16.52 200.02,16.92 C198.86,17.68 197.77,18.39 196.75,19.05 C195.73,19.71 194.8,20.38 193.96,21.06 C193.4,20.66 193.3,20.13 193.66,19.47 C194.02,18.81 194.71,18.08 195.73,17.28 C196.75,16.48 198.04,15.6 199.6,14.64 C201.16,13.68 202.88,12.66 204.76,11.58 C205.52,11.14 205.97,10.54 206.11,9.78 C206.25,9.02 206.16,8.22 205.84,7.38 C205.52,6.54 205.04,5.71 204.4,4.89 C203.76,4.07 203.03,3.37 202.21,2.79 C201.39,2.21 200.54,1.82 199.66,1.62 C198.78,1.42 197.96,1.52 197.2,1.92 C193.8,3.68 191.07,5.57 189.01,7.59 C186.95,9.61 185.63,11.6 185.05,13.56 C184.47,15.52 184.65,17.37 185.59,19.11 C186.53,20.85 188.3,22.34 190.9,23.58 C188.14,26.06 186.51,28.16 186.01,29.88 C185.51,31.6 185.89,32.84 187.15,33.6 Z M213.01,39.18 C214.95,39.18 216.97,39.14 219.07,39.06 C221.17,38.98 223.2,38.87 225.16,38.73 C227.12,38.59 228.74,38.4 230.02,38.16 C230.86,38 231.42,37.57 231.7,36.87 C231.98,36.17 232.06,35.43 231.94,34.65 C231.82,33.87 231.55,33.18 231.13,32.58 C230.71,31.98 230.2,31.72 229.6,31.8 C227.52,32.12 225.06,32.34 222.22,32.46 C222.22,30.78 222.19,28.97 222.13,27.03 C222.07,25.09 222,23.22 221.92,21.42 C223.44,21.38 224.85,21.36 226.15,21.36 C227.45,21.36 228.38,21.38 228.94,21.42 C229.46,21.42 229.87,21.1 230.17,20.46 C230.47,19.82 230.64,19.1 230.68,18.3 C230.72,17.5 230.63,16.74 230.41,16.02 C230.19,15.3 229.8,14.88 229.24,14.76 C228.76,14.64 227.99,14.55 226.93,14.49 C225.87,14.43 224.66,14.38 223.3,14.34 C221.94,14.3 220.51,14.29 219.01,14.31 C217.51,14.33 216.08,14.35 214.72,14.37 C213.36,14.39 212.13,14.44 211.03,14.52 C209.93,14.6 209.14,14.68 208.66,14.76 C207.94,14.88 207.42,15.34 207.1,16.14 C206.78,16.94 206.64,17.79 206.68,18.69 C206.72,19.59 206.93,20.38 207.31,21.06 C207.69,21.74 208.22,22.02 208.9,21.9 C209.58,21.82 210.59,21.75 211.93,21.69 C213.27,21.63 214.76,21.56 216.4,21.48 C216.36,23.28 216.31,25.2 216.25,27.24 C216.19,29.28 216.12,31.1 216.04,32.7 C214.56,32.74 213.15,32.77 211.81,32.79 C210.47,32.81 209.28,32.8 208.24,32.76 C207.64,32.76 207.17,33.07 206.83,33.69 C206.49,34.31 206.31,35.01 206.29,35.79 C206.27,36.57 206.41,37.29 206.71,37.95 C207.01,38.61 207.52,38.96 208.24,39 C209.48,39.12 211.07,39.18 213.01,39.18 Z M188.23,42.45 C188.69,42.99 189.36,43.2 190.24,43.08 C190.84,43 191.6,42.89 192.52,42.75 C193.44,42.61 194.46,42.43 195.58,42.21 C196.7,41.99 197.86,41.73 199.06,41.43 C200.26,41.13 201.42,40.8 202.54,40.44 C203.18,40.24 203.59,39.84 203.77,39.24 C203.95,38.64 203.97,38.04 203.83,37.44 C203.69,36.84 203.41,36.32 202.99,35.88 C202.57,35.44 202.1,35.28 201.58,35.4 C199.38,35.88 197.15,36.33 194.89,36.75 C192.63,37.17 190.7,37.44 189.1,37.56 C188.46,37.64 188,37.99 187.72,38.61 C187.44,39.23 187.34,39.89 187.42,40.59 C187.5,41.29 187.77,41.91 188.23,42.45 Z M256.36,13.68 C256.88,13.92 257.42,13.75 257.98,13.17 C258.54,12.59 258.98,11.89 259.3,11.07 C259.62,10.25 259.75,9.42 259.69,8.58 C259.63,7.74 259.24,7.16 258.52,6.84 C258.04,6.64 257.47,6.42 256.81,6.18 C256.15,5.94 255.45,5.71 254.71,5.49 C253.97,5.27 253.23,5.06 252.49,4.86 C251.75,4.66 251.06,4.5 250.42,4.38 C249.74,4.22 249.13,4.42 248.59,4.98 C248.05,5.54 247.66,6.22 247.42,7.02 C247.18,7.82 247.12,8.59 247.24,9.33 C247.36,10.07 247.76,10.54 248.44,10.74 C249.84,11.14 251.29,11.63 252.79,12.21 C254.29,12.79 255.48,13.28 256.36,13.68 Z M284.62,34.5 C285.1,34.82 285.62,34.81 286.18,34.47 C286.74,34.13 287.2,33.64 287.56,33 C287.92,32.36 288.13,31.69 288.19,30.99 C288.25,30.29 288,29.76 287.44,29.4 C286.72,28.92 285.92,28.42 285.04,27.9 C284.16,27.38 283.23,26.86 282.25,26.34 C281.27,25.82 280.28,25.3 279.28,24.78 C278.28,24.26 277.3,23.76 276.34,23.28 L276.34,23.28 L276.76,22.26 C278.92,22.22 280.98,22.2 282.94,22.2 C284.9,22.2 286.56,22.22 287.92,22.26 C288.28,22.26 288.59,22.04 288.85,21.6 C289.11,21.16 289.31,20.59 289.45,19.89 C289.59,19.19 289.68,18.43 289.72,17.61 C289.76,16.79 289.72,16.03 289.6,15.33 C289.48,14.63 289.29,14.02 289.03,13.5 C288.77,12.98 288.44,12.7 288.04,12.66 C287.24,12.54 286.3,12.44 285.22,12.36 C284.14,12.28 282.96,12.22 281.68,12.18 L281.68,12.18 L282.52,10.62 C282.8,10.1 282.72,9.52 282.28,8.88 C281.84,8.24 281.26,7.71 280.54,7.29 C279.82,6.87 279.08,6.63 278.32,6.57 C277.56,6.51 276.98,6.8 276.58,7.44 C276.06,8.24 275.58,9.03 275.14,9.81 C274.7,10.59 274.26,11.34 273.82,12.06 C272.02,12.1 270.33,12.15 268.75,12.21 C267.17,12.27 265.84,12.36 264.76,12.48 C264.24,12.56 263.83,12.87 263.53,13.41 C263.23,13.95 263.02,14.61 262.9,15.39 C262.78,16.17 262.74,17 262.78,17.88 C262.82,18.76 262.93,19.57 263.11,20.31 C263.29,21.05 263.52,21.66 263.8,22.14 C264.08,22.62 264.42,22.84 264.82,22.8 L264.82,22.8 L268.18,22.56 L264.28,30.48 C263.92,31.24 264.07,31.95 264.73,32.61 C265.39,33.27 266.22,33.79 267.22,34.17 C268.22,34.55 269.19,34.73 270.13,34.71 C271.07,34.69 271.66,34.4 271.9,33.84 L271.9,33.84 L274.06,28.62 C275.98,29.54 277.91,30.53 279.85,31.59 C281.79,32.65 283.38,33.62 284.62,34.5 Z M287.68,42.78 C288.32,42.78 288.81,42.5 289.15,41.94 C289.49,41.38 289.69,40.75 289.75,40.05 C289.81,39.35 289.72,38.71 289.48,38.13 C289.24,37.55 288.84,37.24 288.28,37.2 C286.4,37.16 284.16,37.04 281.56,36.84 C278.96,36.64 276.28,36.41 273.52,36.15 C270.76,35.89 268.07,35.59 265.45,35.25 C262.83,34.91 260.6,34.58 258.76,34.26 C259.44,31.74 259.99,29.17 260.41,26.55 C260.83,23.93 261.08,21.58 261.16,19.5 C261.16,19.02 261.04,18.59 260.8,18.21 C260.56,17.83 260.28,17.51 259.96,17.25 C259.64,16.99 259.3,16.78 258.94,16.62 C258.58,16.46 258.28,16.38 258.04,16.38 C256.12,16.46 254.34,16.66 252.7,16.98 C251.06,17.3 249.4,17.68 247.72,18.12 C247.16,18.24 246.83,18.64 246.73,19.32 C246.63,20 246.67,20.7 246.85,21.42 C247.03,22.14 247.31,22.76 247.69,23.28 C248.07,23.8 248.48,23.98 248.92,23.82 C249.4,23.66 249.92,23.49 250.48,23.31 C251.04,23.13 251.59,22.98 252.13,22.86 C252.67,22.74 253.16,22.64 253.6,22.56 C254.04,22.48 254.4,22.44 254.68,22.44 C255.04,22.44 255.21,22.78 255.19,23.46 C255.17,24.14 255.02,25 254.74,26.04 C254.46,27.08 254.1,28.25 253.66,29.55 C253.22,30.85 252.74,32.14 252.22,33.42 C251.7,34.7 251.19,35.9 250.69,37.02 C250.19,38.14 249.76,39.04 249.4,39.72 C249.08,40.28 249.2,40.8 249.76,41.28 C250.32,41.76 251,42.13 251.8,42.39 C252.6,42.65 253.41,42.76 254.23,42.72 C255.05,42.68 255.58,42.44 255.82,42 C256.02,41.6 256.21,41.19 256.39,40.77 C256.57,40.35 256.76,39.92 256.96,39.48 C259,39.92 261.31,40.32 263.89,40.68 C266.47,41.04 269.13,41.37 271.87,41.67 C274.61,41.97 277.34,42.21 280.06,42.39 C282.78,42.57 285.32,42.7 287.68,42.78 Z M315.91,41.37 C317.09,41.67 318.18,41.75 319.18,41.61 C320.18,41.47 320.88,41.04 321.28,40.32 C322.64,37.8 323.99,35.37 325.33,33.03 C326.67,30.69 328.02,28.38 329.38,26.1 C329.98,26.54 330.74,27.13 331.66,27.87 C332.58,28.61 333.57,29.42 334.63,30.3 C335.69,31.18 336.79,32.09 337.93,33.03 C339.07,33.97 340.15,34.87 341.17,35.73 C342.19,36.59 343.12,37.38 343.96,38.1 C344.8,38.82 345.44,39.4 345.88,39.84 C346.32,40.24 346.84,40.35 347.44,40.17 C348.04,39.99 348.57,39.66 349.03,39.18 C349.49,38.7 349.81,38.14 349.99,37.5 C350.17,36.86 350.04,36.28 349.6,35.76 C349,35.04 347.92,34.01 346.36,32.67 C344.8,31.33 343.1,29.92 341.26,28.44 C339.42,26.96 337.66,25.58 335.98,24.3 C334.3,23.02 333.04,22.08 332.2,21.48 C333.24,19.8 334.3,18.15 335.38,16.53 C336.46,14.91 337.58,13.32 338.74,11.76 C339.22,11.08 339.36,10.3 339.16,9.42 C338.96,8.54 338.53,7.7 337.87,6.9 C337.21,6.1 336.4,5.36 335.44,4.68 C334.48,4 333.48,3.5 332.44,3.18 C331.4,2.86 330.39,2.78 329.41,2.94 C328.43,3.1 327.62,3.58 326.98,4.38 C325.3,6.5 323.67,8.61 322.09,10.71 C320.51,12.81 318.94,14.98 317.38,17.22 C315.82,19.46 314.25,21.78 312.67,24.18 C311.09,26.58 309.5,29.12 307.9,31.8 C307.3,32.8 307.16,33.8 307.48,34.8 C307.8,35.8 308.38,36.74 309.22,37.62 C310.06,38.5 311.09,39.27 312.31,39.93 C313.53,40.59 314.73,41.07 315.91,41.37 Z M51.28,81.0883871 C51.52,81.4883871 51.94,81.6183871 52.54,81.4783871 C53.14,81.3383871 53.73,81.0583871 54.31,80.6383871 C54.89,80.2183871 55.35,79.7383871 55.69,79.1983871 C56.03,78.6583871 56.08,78.1883871 55.84,77.7883871 C55.12,76.6683871 54.2,75.4283871 53.08,74.0683871 C51.96,72.7083871 50.81,71.3883871 49.63,70.1083871 C48.45,68.8283871 47.31,67.6383871 46.21,66.5383871 C45.11,65.4383871 44.2,64.6083871 43.48,64.0483871 C43,63.6483871 42.47,63.5683871 41.89,63.8083871 C41.31,64.0483871 40.8,64.4083871 40.36,64.8883871 C39.92,65.3683871 39.62,65.8783871 39.46,66.4183871 C39.3,66.9583871 39.38,67.3683871 39.7,67.6483871 C40.5,68.2883871 41.47,69.2183871 42.61,70.4383871 C43.75,71.6583871 44.88,72.9383871 46,74.2783871 C47.12,75.6183871 48.16,76.9083871 49.12,78.1483871 C50.08,79.3883871 50.8,80.3683871 51.28,81.0883871 Z M28.18,79.7083871 C28.74,79.8283871 29.12,79.7483871 29.32,79.4683871 C29.76,78.7483871 30.29,77.9083871 30.91,76.9483871 C31.53,75.9883871 32.17,75.0183871 32.83,74.0383871 C33.49,73.0583871 34.13,72.1083871 34.75,71.1883871 C35.37,70.2683871 35.92,69.4683871 36.4,68.7883871 C36.68,68.3883871 36.7,67.9483871 36.46,67.4683871 C36.22,66.9883871 35.86,66.5683871 35.38,66.2083871 C34.9,65.8483871 34.37,65.6183871 33.79,65.5183871 C33.21,65.4183871 32.74,65.5683871 32.38,65.9683871 C31.82,66.5283871 31.18,67.2583871 30.46,68.1583871 C29.74,69.0583871 29.02,70.0083871 28.3,71.0083871 C27.58,72.0083871 26.9,72.9883871 26.26,73.9483871 C25.62,74.9083871 25.12,75.7483871 24.76,76.4683871 C24.56,76.9083871 24.65,77.3583871 25.03,77.8183871 C25.41,78.2783871 25.89,78.6783871 26.47,79.0183871 C27.05,79.3583871 27.62,79.5883871 28.18,79.7083871 Z M11.89,100.528387 C12.95,100.568387 13.94,100.498387 14.86,100.318387 C15.78,100.138387 16.56,99.8383871 17.2,99.4183871 C17.84,98.9983871 18.18,98.4483871 18.22,97.7683871 C18.3,97.0883871 18.35,96.3883871 18.37,95.6683871 C18.39,94.9483871 18.42,94.2083871 18.46,93.4483871 C19.3,93.6083871 20.08,93.7483871 20.8,93.8683871 C21.52,93.9883871 22.14,94.0883871 22.66,94.1683871 C23.14,94.2483871 23.53,94.0883871 23.83,93.6883871 C24.13,93.2883871 24.34,92.8183871 24.46,92.2783871 C24.58,91.7383871 24.59,91.2383871 24.49,90.7783871 C24.39,90.3183871 24.16,90.0683871 23.8,90.0283871 C23.24,89.9483871 22.5,89.8383871 21.58,89.6983871 C20.66,89.5583871 19.66,89.3883871 18.58,89.1883871 C18.58,86.9883871 18.52,84.7683871 18.4,82.5283871 L18.4,82.5283871 L23.5,82.1083871 C23.9,82.1083871 24.19,81.8683871 24.37,81.3883871 C24.55,80.9083871 24.63,80.3883871 24.61,79.8283871 C24.59,79.2683871 24.45,78.7483871 24.19,78.2683871 C23.93,77.7883871 23.56,77.5283871 23.08,77.4883871 C22.56,77.4483871 21.87,77.4383871 21.01,77.4583871 C20.15,77.4783871 19.2,77.5283871 18.16,77.6083871 C18.04,75.9283871 17.89,74.3183871 17.71,72.7783871 C17.53,71.2383871 17.34,69.7883871 17.14,68.4283871 C16.94,67.3483871 16.28,66.6083871 15.16,66.2083871 C14.04,65.8083871 12.83,65.6683871 11.53,65.7883871 C10.23,65.9083871 9.07,66.2583871 8.05,66.8383871 C7.03,67.4183871 6.54,68.1483871 6.58,69.0283871 C6.7,71.9883871 6.76,75.1283871 6.76,78.4483871 C5.56,78.5683871 4.48,78.6883871 3.52,78.8083871 C2.56,78.9283871 1.8,79.0283871 1.24,79.1083871 C0.68,79.1883871 0.32,79.4983871 0.16,80.0383871 C-1.77635684e-15,80.5783871 -0.04,81.1483871 0.04,81.7483871 C0.12,82.3483871 0.31,82.8983871 0.61,83.3983871 C0.91,83.8983871 1.24,84.1683871 1.6,84.2083871 C1.52,84.9283871 1.44,85.6983871 1.36,86.5183871 C1.28,87.3383871 1.21,88.1383871 1.15,88.9183871 C1.09,89.6983871 1.04,90.4383871 1,91.1383871 C0.96,91.8383871 0.94,92.3883871 0.94,92.7883871 C0.94,93.1483871 1.18,93.4283871 1.66,93.6283871 C2.14,93.8283871 2.66,93.9383871 3.22,93.9583871 C3.78,93.9783871 4.3,93.8883871 4.78,93.6883871 C5.26,93.4883871 5.48,93.1683871 5.44,92.7283871 C5.4,92.4883871 5.38,92.1383871 5.38,91.6783871 L5.38,91.6783871 L5.38,90.2083871 C5.54,90.2483871 5.69,90.2883871 5.83,90.3283871 C5.97,90.3683871 6.14,90.4283871 6.34,90.5083871 L6.34,90.5083871 L5.98,98.0083871 C5.94,98.4883871 6.21,98.9083871 6.79,99.2683871 C7.37,99.6283871 8.1,99.9183871 8.98,100.138387 C9.86,100.358387 10.83,100.488387 11.89,100.528387 Z M21.94,75.4483871 C22.98,75.4483871 23.88,75.0583871 24.64,74.2783871 C25.4,73.4983871 25.78,72.5683871 25.78,71.4883871 C25.78,70.3283871 25.38,69.3883871 24.58,68.6683871 C23.78,67.9483871 22.9,67.5883871 21.94,67.5883871 C20.86,67.5883871 19.94,67.9683871 19.18,68.7283871 C18.42,69.4883871 18.04,70.4083871 18.04,71.4883871 C18.04,72.5683871 18.42,73.4983871 19.18,74.2783871 C19.94,75.0583871 20.86,75.4483871 21.94,75.4483871 Z M3.4,76.5283871 C4.08,76.5283871 4.64,76.2983871 5.08,75.8383871 C5.52,75.3783871 5.74,74.8083871 5.74,74.1283871 C5.74,73.4483871 5.52,72.8783871 5.08,72.4183871 C4.64,71.9583871 4.08,71.7283871 3.4,71.7283871 C2.72,71.7283871 2.15,71.9583871 1.69,72.4183871 C1.23,72.8783871 1,73.4483871 1,74.1283871 C1,74.8083871 1.23,75.3783871 1.69,75.8383871 C2.15,76.2983871 2.72,76.5283871 3.4,76.5283871 Z M46.15,103.168387 C47.01,103.248387 47.56,103.048387 47.8,102.568387 C48.92,100.368387 49.87,98.1083871 50.65,95.7883871 C51.43,93.4683871 51.87,91.2783871 51.97,89.2183871 C52.07,87.1583871 51.75,85.3383871 51.01,83.7583871 C50.27,82.1783871 48.93,81.0183871 46.99,80.2783871 C45.05,79.5383871 42.43,79.3183871 39.13,79.6183871 C35.83,79.9183871 31.7,80.9083871 26.74,82.5883871 C26.14,82.7883871 25.79,83.2083871 25.69,83.8483871 C25.59,84.4883871 25.64,85.1183871 25.84,85.7383871 C26.04,86.3583871 26.36,86.8883871 26.8,87.3283871 C27.24,87.7683871 27.68,87.9083871 28.12,87.7483871 L28.12,87.7483871 L31.6,86.5483871 C30.68,88.3483871 29.8,90.1383871 28.96,91.9183871 C28.12,93.6983871 27.3,95.5683871 26.5,97.5283871 C26.18,98.2883871 26.29,98.9383871 26.83,99.4783871 C27.37,100.018387 28.05,100.388387 28.87,100.588387 C29.69,100.788387 30.49,100.818387 31.27,100.678387 C32.05,100.538387 32.52,100.188387 32.68,99.6283871 C33.36,97.1083871 34.22,94.5383871 35.26,91.9183871 C36.3,89.2983871 37.28,86.9483871 38.2,84.8683871 C40.96,84.4283871 42.91,84.5383871 44.05,85.1983871 C45.19,85.8583871 45.76,86.8883871 45.76,88.2883871 C45.76,89.6883871 45.31,91.3683871 44.41,93.3283871 C43.51,95.2883871 42.4,97.3083871 41.08,99.3883871 C40.76,99.9083871 40.88,100.458387 41.44,101.038387 C42,101.618387 42.71,102.098387 43.57,102.478387 C44.43,102.858387 45.29,103.088387 46.15,103.168387 Z M6.52,86.7883871 C6.32,86.7083871 6.12,86.6583871 5.92,86.6383871 C5.72,86.6183871 5.54,86.5883871 5.38,86.5483871 L5.38,86.5483871 L5.38,85.1083871 C5.38,84.6683871 5.4,84.2283871 5.44,83.7883871 L5.44,83.7883871 L6.64,83.6083871 C6.6,84.1683871 6.57,84.6983871 6.55,85.1983871 C6.53,85.6983871 6.52,86.2283871 6.52,86.7883871 Z M74.98,93.3583871 C76.38,93.4183871 78.03,93.2483871 79.93,92.8483871 C81.83,92.4483871 83.88,91.7883871 86.08,90.8683871 C86.72,90.5883871 87.12,90.1583871 87.28,89.5783871 C87.44,88.9983871 87.41,88.4383871 87.19,87.8983871 C86.97,87.3583871 86.61,86.9283871 86.11,86.6083871 C85.61,86.2883871 85.04,86.2683871 84.4,86.5483871 C81.8,87.6283871 79.86,88.2483871 78.58,88.4083871 C77.3,88.5683871 76.72,88.3483871 76.84,87.7483871 C76.96,87.1483871 77.79,86.2083871 79.33,84.9283871 C80.87,83.6483871 83.14,82.1283871 86.14,80.3683871 C86.66,80.0883871 86.91,79.6283871 86.89,78.9883871 C86.87,78.3483871 86.68,77.7583871 86.32,77.2183871 C85.96,76.6783871 85.48,76.2783871 84.88,76.0183871 C84.28,75.7583871 83.66,75.8283871 83.02,76.2283871 C81.86,76.9883871 80.78,77.7083871 79.78,78.3883871 C78.78,79.0683871 77.88,79.7483871 77.08,80.4283871 C76.52,80.0283871 76.41,79.5083871 76.75,78.8683871 C77.09,78.2283871 77.77,77.4983871 78.79,76.6783871 C79.81,75.8583871 81.09,74.9783871 82.63,74.0383871 C84.17,73.0983871 85.86,72.0883871 87.7,71.0083871 C88.38,70.6483871 88.78,70.0983871 88.9,69.3583871 C89.02,68.6183871 88.95,67.8183871 88.69,66.9583871 C88.43,66.0983871 88.01,65.2483871 87.43,64.4083871 C86.85,63.5683871 86.17,62.8483871 85.39,62.2483871 C84.61,61.6483871 83.77,61.2583871 82.87,61.0783871 C81.97,60.8983871 81.1,61.0283871 80.26,61.4683871 C76.9,63.2283871 74.21,65.1083871 72.19,67.1083871 C70.17,69.1083871 68.87,71.0783871 68.29,73.0183871 C67.71,74.9583871 67.9,76.7983871 68.86,78.5383871 C69.82,80.2783871 71.6,81.7483871 74.2,82.9483871 C72.64,84.4683871 71.54,85.8583871 70.9,87.1183871 C70.26,88.3783871 70.01,89.4583871 70.15,90.3583871 C70.29,91.2583871 70.78,91.9683871 71.62,92.4883871 C72.46,93.0083871 73.58,93.2983871 74.98,93.3583871 Z M89.68,92.5183871 C90.8,93.3383871 92.65,93.5983871 95.23,93.2983871 C97.81,92.9983871 100.86,92.0683871 104.38,90.5083871 C104.9,90.2683871 105.2,89.8783871 105.28,89.3383871 C105.36,88.7983871 105.27,88.2683871 105.01,87.7483871 C104.75,87.2283871 104.38,86.8183871 103.9,86.5183871 C103.42,86.2183871 102.9,86.2083871 102.34,86.4883871 C99.98,87.6483871 98.24,88.2783871 97.12,88.3783871 C96,88.4783871 95.52,88.1783871 95.68,87.4783871 C95.84,86.7783871 96.65,85.7383871 98.11,84.3583871 C99.57,82.9783871 101.68,81.3683871 104.44,79.5283871 C104.92,79.2083871 105.12,78.7683871 105.04,78.2083871 C104.96,77.6483871 104.73,77.1283871 104.35,76.6483871 C103.97,76.1683871 103.49,75.8183871 102.91,75.5983871 C102.33,75.3783871 101.8,75.4483871 101.32,75.8083871 C100.4,76.4883871 99.53,77.1383871 98.71,77.7583871 C97.89,78.3783871 97.12,78.9883871 96.4,79.5883871 C95.2,79.1083871 94.6,78.4683871 94.6,77.6683871 C94.6,76.8683871 95.02,75.9583871 95.86,74.9383871 C96.7,73.9183871 97.86,72.8383871 99.34,71.6983871 C100.82,70.5583871 102.42,69.4083871 104.14,68.2483871 C104.66,67.8883871 104.89,67.3883871 104.83,66.7483871 C104.77,66.1083871 104.52,65.5183871 104.08,64.9783871 C103.64,64.4383871 103.08,64.0383871 102.4,63.7783871 C101.72,63.5183871 101.06,63.6083871 100.42,64.0483871 C97.46,65.9683871 95,67.7883871 93.04,69.5083871 C91.08,71.2283871 89.75,72.8383871 89.05,74.3383871 C88.35,75.8383871 88.36,77.2283871 89.08,78.5083871 C89.8,79.7883871 91.36,80.9283871 93.76,81.9283871 C91.04,84.5683871 89.4,86.7883871 88.84,88.5883871 C88.28,90.3883871 88.56,91.6983871 89.68,92.5183871 Z M79.27,102.178387 C80.57,102.198387 81.98,102.188387 83.5,102.148387 C85.02,102.108387 86.59,102.058387 88.21,101.998387 C89.83,101.938387 91.4,101.858387 92.92,101.758387 C94.44,101.658387 95.83,101.558387 97.09,101.458387 C98.35,101.358387 99.38,101.248387 100.18,101.128387 C100.74,101.048387 101.14,100.698387 101.38,100.078387 C101.62,99.4583871 101.71,98.7983871 101.65,98.0983871 C101.59,97.3983871 101.41,96.7683871 101.11,96.2083871 C100.81,95.6483871 100.42,95.3883871 99.94,95.4283871 C99.1,95.4683871 98.06,95.5183871 96.82,95.5783871 C95.58,95.6383871 94.23,95.6883871 92.77,95.7283871 C91.31,95.7683871 89.78,95.8083871 88.18,95.8483871 C86.58,95.8883871 85.03,95.9083871 83.53,95.9083871 L83.53,95.9083871 L78.8134375,95.9074496 C77.6978125,95.9030746 76.72,95.8833871 75.88,95.8483871 C75.24,95.8083871 74.76,96.1083871 74.44,96.7483871 C74.12,97.3883871 73.96,98.0983871 73.96,98.8783871 C73.96,99.6583871 74.14,100.378387 74.5,101.038387 C74.86,101.698387 75.4,102.048387 76.12,102.088387 C76.92,102.128387 77.97,102.158387 79.27,102.178387 Z M167.98,105.298387 C168.86,105.318387 169.4,105.168387 169.6,104.848387 C170.84,102.888387 171.7,101.058387 172.18,99.3583871 C172.66,97.6583871 172.53,96.2583871 171.79,95.1583871 C171.05,94.0583871 169.55,93.3283871 167.29,92.9683871 C165.03,92.6083871 161.8,92.7883871 157.6,93.5083871 L157.6,93.5083871 L157.96,91.6483871 C159.12,91.6083871 160.29,91.5783871 161.47,91.5583871 C162.65,91.5383871 163.79,91.5283871 164.89,91.5283871 L164.89,91.5283871 L170.38,91.5283871 C170.7,91.5283871 170.97,91.3183871 171.19,90.8983871 C171.41,90.4783871 171.54,89.9983871 171.58,89.4583871 C171.62,88.9183871 171.56,88.4183871 171.4,87.9583871 C171.24,87.4983871 170.94,87.2283871 170.5,87.1483871 C169.7,87.0283871 168.68,86.9383871 167.44,86.8783871 C166.2,86.8183871 164.86,86.7683871 163.42,86.7283871 C163.86,86.2083871 164.14,85.5683871 164.26,84.8083871 C164.38,84.0483871 164.14,83.5283871 163.54,83.2483871 C162.82,82.9283871 162.06,82.6083871 161.26,82.2883871 C160.46,81.9683871 159.7,81.7083871 158.98,81.5083871 C160.94,81.3883871 162.71,81.3483871 164.29,81.3883871 C165.87,81.4283871 167.36,81.5683871 168.76,81.8083871 C169.44,81.9283871 169.8,82.2883871 169.84,82.8883871 C169.88,83.4883871 169.78,84.2483871 169.54,85.1683871 C169.46,85.5283871 169.68,85.8183871 170.2,86.0383871 C170.72,86.2583871 171.33,86.3983871 172.03,86.4583871 C172.73,86.5183871 173.4,86.4583871 174.04,86.2783871 C174.68,86.0983871 175.06,85.7683871 175.18,85.2883871 C175.22,85.0883871 175.27,84.6383871 175.33,83.9383871 C175.39,83.2383871 175.41,82.4983871 175.39,81.7183871 C175.37,80.9383871 175.29,80.2083871 175.15,79.5283871 C175.01,78.8483871 174.78,78.4283871 174.46,78.2683871 C173.66,77.9083871 172.54,77.6483871 171.1,77.4883871 C169.66,77.3283871 168.08,77.2283871 166.36,77.1883871 C166.48,76.6283871 166.59,76.0883871 166.69,75.5683871 C166.79,75.0483871 166.88,74.5283871 166.96,74.0083871 L166.96,74.0083871 L170.08,74.0083871 C170.6,74.0083871 171.01,73.6983871 171.31,73.0783871 C171.61,72.4583871 171.78,71.7583871 171.82,70.9783871 C171.86,70.1983871 171.75,69.4583871 171.49,68.7583871 C171.23,68.0583871 170.8,67.6683871 170.2,67.5883871 C169.32,67.4683871 168.29,67.3683871 167.11,67.2883871 C165.93,67.2083871 164.66,67.1683871 163.3,67.1683871 C163.7,66.2883871 163.62,65.5883871 163.06,65.0683871 C162.38,64.5083871 161.64,63.9583871 160.84,63.4183871 C160.04,62.8783871 159.26,62.3683871 158.5,61.8883871 C158.02,61.6083871 157.52,61.5983871 157,61.8583871 C156.48,62.1183871 156.05,62.4983871 155.71,62.9983871 C155.37,63.4983871 155.17,64.0183871 155.11,64.5583871 C155.05,65.0983871 155.22,65.5083871 155.62,65.7883871 L155.62,65.7883871 L157.72,67.2283871 C156.2,67.2683871 154.77,67.3283871 153.43,67.4083871 C152.09,67.4883871 150.94,67.5683871 149.98,67.6483871 C149.26,67.7283871 148.76,68.1583871 148.48,68.9383871 C148.2,69.7183871 148.09,70.5483871 148.15,71.4283871 C148.21,72.3083871 148.4,73.1083871 148.72,73.8283871 C149.04,74.5483871 149.46,74.8883871 149.98,74.8483871 L149.98,74.8483871 L152.44,74.6683871 C152.6,75.3083871 152.75,75.8383871 152.89,76.2583871 C153.03,76.6783871 153.22,77.1683871 153.46,77.7283871 L153.46,77.7283871 L151.06,77.9683871 C150.94,77.6883871 150.6,77.4583871 150.04,77.2783871 C149.48,77.0983871 148.89,77.0083871 148.27,77.0083871 C147.65,77.0083871 147.07,77.1083871 146.53,77.3083871 C145.99,77.5083871 145.7,77.8083871 145.66,78.2083871 C145.58,79.0483871 145.51,79.7683871 145.45,80.3683871 C145.39,80.9683871 145.35,81.5583871 145.33,82.1383871 C145.31,82.7183871 145.31,83.3383871 145.33,83.9983871 C145.35,84.6583871 145.36,85.4483871 145.36,86.3683871 C145.36,86.7683871 145.5,87.0883871 145.78,87.3283871 C146.06,87.5683871 146.41,87.7483871 146.83,87.8683871 C147.25,87.9883871 147.71,88.0283871 148.21,87.9883871 C148.71,87.9483871 149.18,87.8683871 149.62,87.7483871 C149.46,88.1083871 149.36,88.5283871 149.32,89.0083871 C149.28,89.4883871 149.31,89.9483871 149.41,90.3883871 C149.51,90.8283871 149.66,91.1983871 149.86,91.4983871 C150.06,91.7983871 150.3,91.9483871 150.58,91.9483871 C150.82,91.9483871 151.09,91.9383871 151.39,91.9183871 C151.69,91.8983871 152,91.8683871 152.32,91.8283871 C151.88,93.3483871 151.49,94.8883871 151.15,96.4483871 C150.81,98.0083871 150.48,99.8883871 150.16,102.088387 C150.04,102.768387 150.31,103.298387 150.97,103.678387 C151.63,104.058387 152.38,104.298387 153.22,104.398387 C154.06,104.498387 154.84,104.458387 155.56,104.278387 C156.28,104.098387 156.66,103.748387 156.7,103.228387 C156.78,102.188387 156.85,101.198387 156.91,100.258387 C156.97,99.3183871 157.04,98.3883871 157.12,97.4683871 C160.08,96.8683871 162.21,96.6383871 163.51,96.7783871 C164.81,96.9183871 165.55,97.2783871 165.73,97.8583871 C165.91,98.4383871 165.67,99.1983871 165.01,100.138387 C164.35,101.078387 163.54,102.068387 162.58,103.108387 C162.26,103.428387 162.41,103.758387 163.03,104.098387 C163.65,104.438387 164.41,104.718387 165.31,104.938387 C166.21,105.158387 167.1,105.278387 167.98,105.298387 Z M136.66,102.658387 C137.58,102.638387 138.43,102.408387 139.21,101.968387 C139.99,101.528387 140.4,100.908387 140.44,100.108387 L140.44,100.108387 L140.44,97.9783871 C140.44,97.0783871 140.42,96.0283871 140.38,94.8283871 C140.9,94.9883871 141.42,95.1283871 141.94,95.2483871 C142.46,95.3683871 142.96,95.4683871 143.44,95.5483871 C144.04,95.6683871 144.55,95.4983871 144.97,95.0383871 C145.39,94.5783871 145.68,94.0383871 145.84,93.4183871 C146,92.7983871 146.02,92.1983871 145.9,91.6183871 C145.78,91.0383871 145.5,90.6883871 145.06,90.5683871 L145.06,90.5683871 L140.2,89.3083871 L139.84,82.2883871 L142.36,82.2883871 C142.96,82.2883871 143.48,81.9783871 143.92,81.3583871 C144.36,80.7383871 144.69,79.9583871 144.91,79.0183871 C145.13,78.0783871 145.25,77.0583871 145.27,75.9583871 C145.29,74.8583871 145.21,73.8183871 145.03,72.8383871 C144.85,71.8583871 144.56,71.0083871 144.16,70.2883871 C143.76,69.5683871 143.24,69.1283871 142.6,68.9683871 C142,68.8483871 141.41,68.7383871 140.83,68.6383871 C140.25,68.5383871 139.68,68.4483871 139.12,68.3683871 C139.08,67.9283871 139.05,67.5083871 139.03,67.1083871 C139.01,66.7083871 139,66.3683871 139,66.0883871 C138.96,65.5283871 138.67,65.1083871 138.13,64.8283871 C137.59,64.5483871 137,64.4083871 136.36,64.4083871 C135.72,64.4083871 135.14,64.5583871 134.62,64.8583871 C134.1,65.1583871 133.84,65.6083871 133.84,66.2083871 L133.84,66.2083871 L133.84,68.0083871 C132.36,68.0083871 130.83,68.0783871 129.25,68.2183871 C127.67,68.3583871 125.98,68.5483871 124.18,68.7883871 C123.34,68.9083871 122.67,69.3583871 122.17,70.1383871 C121.67,70.9183871 121.3,71.8583871 121.06,72.9583871 C120.82,74.0583871 120.72,75.2283871 120.76,76.4683871 C120.8,77.7083871 120.97,78.8483871 121.27,79.8883871 C121.57,80.9283871 121.98,81.7783871 122.5,82.4383871 C123.02,83.0983871 123.66,83.3883871 124.42,83.3083871 L124.42,83.3083871 L126.34,83.1283871 C126.06,84.2483871 125.82,85.2983871 125.62,86.2783871 C125.42,87.2583871 125.23,88.2783871 125.05,89.3383871 C124.87,90.3983871 124.7,91.5683871 124.54,92.8483871 C124.38,94.1283871 124.18,95.6283871 123.94,97.3483871 C123.82,98.2283871 124.1,98.8983871 124.78,99.3583871 C125.46,99.8183871 126.23,100.088387 127.09,100.168387 C127.95,100.248387 128.75,100.148387 129.49,99.8683871 C130.23,99.5883871 130.62,99.1483871 130.66,98.5483871 C130.74,97.1483871 130.82,95.9083871 130.9,94.8283871 C130.98,93.7483871 131.06,92.6883871 131.14,91.6483871 C131.46,91.8083871 131.83,91.9683871 132.25,92.1283871 C132.67,92.2883871 133.1,92.4483871 133.54,92.6083871 C133.5,94.2883871 133.46,95.7583871 133.42,97.0183871 C133.38,98.2783871 133.32,99.2483871 133.24,99.9283871 C133.12,100.888387 133.43,101.588387 134.17,102.028387 C134.91,102.468387 135.74,102.678387 136.66,102.658387 Z M158.14,77.3083871 C158.1,77.2683871 158.08,77.2283871 158.08,77.1883871 C157.84,76.6283871 157.63,76.1283871 157.45,75.6883871 C157.27,75.2483871 157.1,74.8083871 156.94,74.3683871 L156.94,74.3683871 L162.34,74.1283871 C162.22,74.6483871 162.11,75.1483871 162.01,75.6283871 C161.91,76.1083871 161.78,76.6283871 161.62,77.1883871 L161.62,77.1883871 L158.14,77.3083871 Z M151.06,86.9683871 C151.22,86.8083871 151.3,86.5883871 151.3,86.3083871 C151.26,85.7483871 151.22,85.1083871 151.18,84.3883871 C151.14,83.6683871 151.12,82.9483871 151.12,82.2283871 C152.32,82.0683871 153.45,81.9383871 154.51,81.8383871 C155.57,81.7383871 156.6,81.6483871 157.6,81.5683871 C157.28,81.7683871 157,82.0583871 156.76,82.4383871 C156.52,82.8183871 156.37,83.2083871 156.31,83.6083871 C156.25,84.0083871 156.27,84.3783871 156.37,84.7183871 C156.47,85.0583871 156.68,85.2883871 157,85.4083871 C158.28,85.8083871 159.42,86.2483871 160.42,86.7283871 C158.62,86.7283871 156.88,86.7483871 155.2,86.7883871 C153.52,86.8283871 152.14,86.8883871 151.06,86.9683871 Z M133.66,87.3283871 L132.16,86.7883871 C132.08,86.7483871 131.94,86.7283871 131.74,86.7283871 L131.74,86.7283871 L132.4,82.5883871 C132.64,82.5883871 132.87,82.5783871 133.09,82.5583871 C133.31,82.5383871 133.52,82.5283871 133.72,82.5283871 L133.72,82.5283871 L133.72,84.9283871 C133.72,85.7283871 133.7,86.5283871 133.66,87.3283871 L133.66,87.3283871 Z" id="校园网红达人粉丝榜" fill="url(#linearGradient-1)" fill-rule="nonzero"></path>
    </g>
</svg>