<?xml version="1.0" encoding="UTF-8"?>
<svg width="200px" height="200px" viewBox="0 0 200 200" version="1.1" xmlns="http://www.w3.org/2000/svg" xmlns:xlink="http://www.w3.org/1999/xlink">
    <!-- Generator: Sketch 57.1 (83088) - https://sketch.com -->
    <title>热门</title>
    <desc>Created with Sketch.</desc>
    <g id="页面-1" stroke="none" stroke-width="1" fill="none" fill-rule="evenodd">
        <g id="热门" fill-rule="nonzero">
            <path d="M83.3091439,0.117139844 L116.61592,0.117139844 C138.774884,-0.370942969 162.788562,6.4231709 177.938655,22.0613467 C193.596354,37.2114396 200.370944,61.2251178 199.902385,83.3840809 L199.902385,116.690857 C200.370944,138.849821 193.596354,162.863499 177.938655,178.013592 C162.788562,193.671291 138.774884,200.445881 116.61592,199.977322 L83.3091439,199.977322 C61.1501807,200.445881 37.1365025,193.671291 21.9864096,178.013592 C6.32871055,162.883022 -0.445880078,138.869344 0.0226794922,116.710381 L0.0226794922,83.4036043 C-0.445880078,61.2251178 6.32871055,37.2114395 21.9864096,22.0613467 C37.1365025,6.4231709 61.1501807,-0.370942969 83.3091439,0.117139844 Z" id="路径" fill="#FF3770"></path>
            <path d="M21.9864096,22.0613467 C7.20725977,36.3719369 0.335052539,58.5699469 0.0226794922,79.6551277 C26.9648551,79.6551277 48.8114453,57.7890143 48.8114453,30.8468387 C48.8114453,22.4908596 46.7029271,14.6229635 43.0130205,7.75075625 C35.0865543,11.2454297 27.8629275,15.9895955 21.9864096,22.0613467 Z" id="路径" fill="#FFFFFF" opacity="0.5"></path>
            <path d="M52.125,63.5234375 L61.2070312,63.5234375 C64.058608,66.531265 66.1679619,68.8359295 67.5351562,70.4375 L72.3984375,76.4140625 L74.9765625,79.1679688 L96.1289062,63.5234375 L101.636719,63.5234375 L123.609375,78.5820312 C128.804713,74.1679467 132.300772,70.7304811 134.097656,68.2695312 L137.671875,63.5234375 L144.703125,63.5234375 L144.703125,117.898438 L110.484375,117.898438 L110.484375,122.703125 L152.378906,122.703125 L152.378906,141.804688 L110.484375,141.804688 L110.484375,157.214844 L86.5195312,157.214844 L86.5195312,141.804688 L45.2109375,141.804688 L45.2109375,122.703125 L86.5195312,122.703125 L86.5195312,117.898438 L52.125,117.898438 L52.125,63.5234375 Z M75.6210938,79.7539062 L75.6210938,84.8515625 L86.5195312,84.8515625 L86.5195312,79.7539062 L75.6210938,79.7539062 Z M110.484375,79.7539062 L110.484375,84.8515625 L122.144531,84.8515625 L122.144531,79.7539062 L110.484375,79.7539062 Z M75.6210938,95.75 L75.6210938,100.90625 L86.5195312,100.90625 L86.5195312,95.75 L75.6210938,95.75 Z M110.484375,95.75 L110.484375,100.90625 L122.144531,100.90625 L122.144531,95.75 L110.484375,95.75 Z M74.4492188,43.3671875 C76.8320432,45.5546984 79.1367076,47.7421766 81.3632812,49.9296875 C83.5898549,52.1171984 87.0468516,56.1991889 91.734375,62.1757812 L75.8554688,74.421875 C74.0195221,72.0781133 72.7988312,70.5449255 72.1933594,69.8222656 C71.5878876,69.0996058 69.9765756,67.2929832 67.359375,64.4023438 L59.2148438,55.6132812 L74.4492188,43.3671875 Z M123.492188,73.7773438 L106.910156,63.2304688 C111.636742,57.7226287 116.441382,51.5898775 121.324219,44.8320312 L138.550781,55.7890625 C133.082004,63.3281627 129.468759,67.9374916 127.710938,69.6171875 L123.492188,73.7773438 Z" id="单" fill="#FFFFFF"></path>
            <path d="M113.337866,118.886746 C111.23287,118.022862 176.967504,125.776342 152.299012,100.772145 C151.019826,99.4755512 153.750733,96.0119784 152.299012,95 C116.151152,107.489292 81,130.391019 81,149.273052 C81,156.060711 83.9034425,162.601546 89.2022248,168.772145 C119.736865,161.180394 146.575294,153.87534 155.545887,141.295637 C159.02888,136.411342 156.784231,127.845502 155.545887,122.46797 C153.627575,122.46797 115.805792,124.563697 113.337866,118.886746 Z" id="路径" fill="#FF3770" opacity="0.5"></path>
        </g>
    </g>
</svg>