<?xml version="1.0" standalone="no"?><!DOCTYPE svg PUBLIC "-//W3C//DTD SVG 1.1//EN" "http://www.w3.org/Graphics/SVG/1.1/DTD/svg11.dtd"><svg t="1581838534448" class="icon" viewBox="0 0 1615 1024" version="1.1" xmlns="http://www.w3.org/2000/svg" p-id="16433" xmlns:xlink="http://www.w3.org/1999/xlink" width="315.4296875" height="200"><defs><style type="text/css"></style></defs><path d="M266.128087 442.72612H268.590164a50.472568 50.472568 0 0 0 48.122404-52.598907 50.584481 50.584481 0 0 0-52.710819-48.010492 50.248743 50.248743 0 0 0-48.122405 52.598907 50.472568 50.472568 0 0 0 50.248743 48.010492zM253.705792 380.502732a17.122623 17.122623 0 0 1 11.191257-5.483716h0.783388A16.898798 16.898798 0 0 1 283.026885 391.693989a16.56306 16.56306 0 0 1-4.36459 12.086557 16.227322 16.227322 0 0 1-11.191257 5.483716A16.674973 16.674973 0 0 1 253.705792 380.502732zM1219.175519 340.214208l5.595629 3.245464-4.476503 4.476503a43.086339 43.086339 0 0 0-12.758033 30.775956 43.533989 43.533989 0 0 0 43.422077 43.422077 43.310164 43.310164 0 0 0 30.775956-12.758033l21.039563-21.039563 25.851803 14.548634a42.414863 42.414863 0 0 0 21.711038 5.819453 43.422077 43.422077 0 0 0 37.378798-21.3753 42.862514 42.862514 0 0 0 4.36459-32.902295 43.310164 43.310164 0 0 0-20.256175-26.411366l-5.595628-3.245465 4.476503-4.476503a43.310164 43.310164 0 0 0 0-61.44 43.533989 43.533989 0 0 0-61.44 0L1288.561311 279.781421l-25.851803-14.884372a43.645902 43.645902 0 0 0-59.425574 15.891585 43.422077 43.422077 0 0 0 15.891585 59.313661z m136.197596 16.898797a9.960219 9.960219 0 0 1 4.588415 6.043279 9.512568 9.512568 0 0 1-1.007213 7.38623 9.848306 9.848306 0 0 1-13.541421 3.581202l-18.017923-10.295956 14.548634-14.436722z m-22.382514-74.53377a9.848306 9.848306 0 0 1 7.050492-2.797814 9.512568 9.512568 0 0 1 9.848306 9.848306 10.072131 10.072131 0 0 1-2.797814 6.938579l-89.530055 89.530055a9.960219 9.960219 0 0 1-14.100984 0 10.072131 10.072131 0 0 1-2.797814-6.93858 9.736393 9.736393 0 0 1 2.797814-6.938579z m-100.721311 15.108197a9.960219 9.960219 0 0 1 13.54142-3.581202l18.017924 10.295956-14.548634 14.436721-13.429508-7.721967a9.512568 9.512568 0 0 1-4.588415-5.931366 9.848306 9.848306 0 0 1 1.119125-7.498142zM789.431257 429.408525c-25.851803 0-46.779454 29.433005-46.779454 65.692677s20.92765 50.136831 46.779454 50.136831 46.667541-13.877158 46.667541-50.136831-20.92765-65.692678-46.667541-65.692677zM739.853989 297.575519l-22.382514-22.382514 22.382514-22.382513a22.382514 22.382514 0 1 0-31.559344-31.671257l-22.382514 22.382514-22.382514-22.382514a22.382514 22.382514 0 1 0-31.671256 31.671257l22.382513 22.382513-22.382513 22.382514a22.382514 22.382514 0 0 0 0 31.559344 22.382514 22.382514 0 0 0 15.779672 6.602842 22.382514 22.382514 0 0 0 15.891584-6.490929l22.382514-22.382514 22.382514 22.382514a22.382514 22.382514 0 1 0 31.559344-31.671257zM947.899454 220.355847a22.382514 22.382514 0 0 0-31.671257 0l-22.942077 22.382514-22.382513-22.382514A22.382514 22.382514 0 0 0 839.344262 252.027104l22.382514 22.382513-22.382514 22.382514a22.382514 22.382514 0 0 0 0 31.559344 22.382514 22.382514 0 0 0 15.779672 6.602842 22.382514 22.382514 0 0 0 15.891585-6.490929l22.382514-22.382514 22.942076 22.382514a22.382514 22.382514 0 1 0 31.559345-31.671257l-22.382514-22.382514 22.382514-22.382513a22.382514 22.382514 0 0 0 0-31.671257z" fill="#667788" p-id="16434"></path><path d="M1431.026011 715.345137h-6.155191a173.800219 173.800219 0 0 0-235.016394-65.692678 259.189508 259.189508 0 0 0-64.349727-55.956284V356.553443a336.633005 336.633005 0 0 0-673.154098 0V560.681967a240.164372 240.164372 0 0 0-50.920218-3.021639 244.417049 244.417049 0 0 0-205.695301 133.175956 146.717377 146.717377 0 0 0-50.248743-6.490929A150.858142 150.858142 0 0 0 1.566776 841.694426a16.786885 16.786885 0 0 0 16.786885 16.003497h0.783388a16.786885 16.786885 0 0 0 16.003497-17.570273A117.060546 117.060546 0 0 1 198.309071 727.431694a16.898798 16.898798 0 0 0 22.382514-8.953005 209.500328 209.500328 0 0 1 380.502732-11.191257 17.01071 17.01071 0 0 0 18.801311 8.953005 153.655956 153.655956 0 0 1 133.511694 31.335519 16.786885 16.786885 0 0 0 26.411367-7.386229 225.391913 225.391913 0 0 1 392.813114-57.52306 16.898798 16.898798 0 0 0 22.382514 4.028852A140.002623 140.002623 0 0 1 1387.715847 720.493115a183.648525 183.648525 0 0 0-102.176175 65.35694 19.584699 19.584699 0 0 0-2.014426 3.245464h-8.505355a133.511694 133.511694 0 0 0-115.158033 66.252241 16.786885 16.786885 0 0 0 29.097268 16.898797 99.378361 99.378361 0 0 1 177.493333 11.191257 16.898798 16.898798 0 0 0 15.555847 10.184044 14.996284 14.996284 0 0 0 6.490929-1.342951 16.786885 16.786885 0 0 0 8.953005-22.382514A133.175956 133.175956 0 0 0 1320.568306 796.817486a150.634317 150.634317 0 0 1 260.868197 102.511913 16.786885 16.786885 0 0 0 33.57377 0 184.431913 184.431913 0 0 0-183.984262-183.984262zM979.458798 557.212678a257.398907 257.398907 0 0 0-223.825137 150.634317 190.251366 190.251366 0 0 0-110.569617-29.656831 195.623169 195.623169 0 0 0-20.927651 2.238251 242.738361 242.738361 0 0 0-138.100109-111.912568v-212.63388a303.059235 303.059235 0 0 1 606.006558 0v221.586885a258.85377 258.85377 0 0 0-112.584044-20.256174z" fill="#667788" p-id="16435"></path><path d="M464.101421 809.463607a195.623169 195.623169 0 0 0-119.186885 106.540765 107.771803 107.771803 0 0 0-153.767869 56.627759 16.786885 16.786885 0 1 0 31.559344 11.191257 74.309945 74.309945 0 0 1 140.338361 2.909727 16.898798 16.898798 0 0 0 16.003497 11.191257 16.451148 16.451148 0 0 0 5.147978-0.783388 16.898798 16.898798 0 0 0 11.191257-21.151476 108.107541 108.107541 0 0 0-22.382514-39.393224 163.951913 163.951913 0 0 1 308.654864 9.400656 16.786885 16.786885 0 0 0 15.891584 11.191257 16.11541 16.11541 0 0 0 5.147978-0.895301 16.674973 16.674973 0 0 0 11.191257-21.039563 197.749508 197.749508 0 0 0-249.788852-125.789726z" fill="#667788" p-id="16436"></path></svg>