<?xml version="1.0" standalone="no"?><!DOCTYPE svg PUBLIC "-//W3C//DTD SVG 1.1//EN" "http://www.w3.org/Graphics/SVG/1.1/DTD/svg11.dtd"><svg t="1577159536121" class="icon" viewBox="0 0 1024 1024" version="1.1" xmlns="http://www.w3.org/2000/svg" p-id="8531" xmlns:xlink="http://www.w3.org/1999/xlink" width="200" height="200"><defs><style type="text/css"></style></defs><path d="M909.8 535.1H689.6v318.2h221.2c26.7 0 48.5-21.9 48.5-48.9V584.8c0-27.4-22.2-49.7-49.5-49.7z" fill="#9289F0" p-id="8532"></path><path d="M689.6 219.8c0-27.1-21.8-49.1-48.5-49.1H403.3c-26.7 0-48.5 22-48.5 49.1v633.5h334.8V219.8z" fill="#FFD778" p-id="8533"></path><path d="M64.7 459.8v344.6c0 27 21.8 48.9 48.5 48.9h241.7V410.4H114.2c-27.3 0-49.5 22.2-49.5 49.4z" fill="#FB952C" p-id="8534"></path><path d="M576.6 571.1c-2.8 2.6-4 6.4-3.4 10.2l6.5 40.5c1.5 9.5-8.5 16.6-16.9 12l-35.9-19.5c-3.3-1.8-7.4-1.9-10.8-0.1l-36.6 18.7c-8.5 4.4-18.3-2.9-16.6-12.4l7.4-40.2c0.7-3.8-0.5-7.6-3.2-10.3l-29.3-29c-6.8-6.7-2.9-18.3 6.5-19.6l41.1-5.7c3.8-0.5 7-2.9 8.7-6.2l18.4-36.5c4.3-8.6 16.6-8.4 20.7 0.2l17.9 37.2c1.7 3.4 4.9 5.8 8.7 6.4l40.5 6.2c9.5 1.5 13.2 13.2 6.2 19.8l-29.9 28.3z" fill="#FB813A" p-id="8535"></path></svg>