<?xml version="1.0" standalone="no"?><!DOCTYPE svg PUBLIC "-//W3C//DTD SVG 1.1//EN" "http://www.w3.org/Graphics/SVG/1.1/DTD/svg11.dtd"><svg t="1583583759808" class="icon" viewBox="0 0 1024 1024" version="1.1" xmlns="http://www.w3.org/2000/svg" p-id="11509" xmlns:xlink="http://www.w3.org/1999/xlink" width="200" height="200"><defs><style type="text/css"></style></defs><path d="M363.008 347.648c0-8.192 2.048-15.872 5.12-23.04h-39.936c-18.944 0-34.816-15.872-34.816-34.816 0-18.944 15.872-34.816 34.816-34.816h313.344v34.816h23.04v-46.592c0-6.656-5.12-11.776-11.776-11.776H328.192c-31.744 0-57.856 26.112-57.856 57.856v348.16c0 44.544 36.352 81.408 81.408 81.408h14.848c-2.048-7.168-3.584-15.36-3.584-23.04v-348.16zM736.256 591.36h-24.064c5.12 29.184 27.648 52.224 56.832 56.832V624.64c-15.872-4.096-28.672-16.896-32.768-33.28z" fill="#FFCB99" p-id="11510"></path><path d="M734.72 359.424v-34.816H395.264c-5.632 6.144-9.216 14.336-9.216 23.04 0 18.944 15.872 34.816 34.816 34.816h348.16v-46.592c0-6.656-5.12-11.776-11.776-11.776v34.816h-22.528zM712.704 568.32h24.064c5.12-19.968 23.04-34.816 44.544-34.816h23.04v-23.04h-23.04c-34.816 0-63.488 25.088-68.608 57.856z" fill="#FFCB99" p-id="11511"></path><path d="M769.536 648.704c-29.184-5.12-52.224-27.648-56.832-56.832-0.512-3.584-1.024-7.68-1.024-11.776 0-4.096 0.512-7.68 1.024-11.776 5.632-32.768 34.304-57.856 68.608-57.856h80.896V394.24c0-6.656-5.12-11.776-11.776-11.776H420.864c-18.944 0-34.816-15.872-34.816-34.816 0-8.704 3.584-16.896 9.216-23.04 6.144-7.168 15.36-11.776 25.6-11.776h313.344v46.592h23.04V301.568c0-6.656-5.12-11.776-11.776-11.776H421.376c-23.552 0-44.032 14.336-53.248 34.816-3.072 7.168-5.12 14.848-5.12 23.04v348.16c0 8.192 1.024 15.872 3.584 23.04 10.24 33.28 40.96 57.856 77.824 57.856h406.016c6.656 0 11.776-5.12 11.776-11.776v-116.224h-81.408c-3.584 1.024-7.68 0.512-11.264 0z" fill="#FF7E00" p-id="11512"></path><path d="M885.76 533.504h-104.448c-21.504 0-39.424 14.848-44.544 34.816-1.024 3.584-1.536 7.68-1.536 11.776 0 4.096 0.512 7.68 1.536 11.776 4.096 16.384 16.896 29.184 33.28 33.28 3.584 1.024 7.68 1.536 11.776 1.536H885.76c6.656 0 11.776-5.12 11.776-11.776v-69.632c-0.512-6.656-5.632-11.776-11.776-11.776z" fill="#FF7E00" p-id="11513"></path><path d="M192.512 718.848h-29.696v-29.696c0-6.656-5.12-11.776-11.776-11.776-6.656 0-11.776 5.12-11.776 11.776v29.696h-29.696c-6.656 0-11.776 5.12-11.776 11.776 0 6.656 5.12 11.776 11.776 11.776h29.696v29.696c0 6.656 5.12 11.776 11.776 11.776 6.656 0 11.776-5.12 11.776-11.776V742.4h29.696c6.656 0 11.776-5.12 11.776-11.776 0-6.144-5.12-11.776-11.776-11.776z" fill="#FFC879" p-id="11514"></path><path d="M171.52 535.04h65.536v65.536H171.52z" fill="#FFF7EC" p-id="11515"></path><path d="M950.272 366.592m-32.768 0a32.768 32.768 0 1 0 65.536 0 32.768 32.768 0 1 0-65.536 0Z" fill="#FFF7EC" p-id="11516"></path><path d="M872.448 226.304l-49.664-49.664c-3.584-3.584-9.216-3.584-12.8 0l-49.664 49.664c-3.584 3.584-3.584 9.216 0 12.8l49.664 49.664c3.584 3.584 9.216 3.584 12.8 0l49.664-49.664c3.584-3.072 3.584-8.704 0-12.8z m-56.32 43.52l-36.864-36.864 36.864-36.864 36.864 36.864-36.864 36.864zM130.048 326.656v125.952c0 4.608 3.072 8.704 7.168 10.752 4.096 2.048 9.216 1.024 12.8-2.56l62.976-62.976c2.048-2.048 3.584-5.12 3.584-8.192s-1.536-5.632-3.584-8.192L150.016 318.464c-3.072-3.072-8.192-4.096-12.8-2.56-4.096 2.048-7.168 6.144-7.168 10.752z m58.368 62.976L153.6 424.448V354.816l34.816 34.816z" fill="#FFC879" p-id="11517"></path></svg>