<?xml version="1.0" standalone="no"?><!DOCTYPE svg PUBLIC "-//W3C//DTD SVG 1.1//EN" "http://www.w3.org/Graphics/SVG/1.1/DTD/svg11.dtd"><svg t="1575892061412" class="icon" viewBox="0 0 1024 1024" version="1.1" xmlns="http://www.w3.org/2000/svg" p-id="151785" xmlns:xlink="http://www.w3.org/1999/xlink" width="200" height="200"><defs><style type="text/css"></style></defs><path d="M256.00639 955.38198C11.386533 813.675063-72.667417 500.626247 68.5015 256.00639S522.717234-72.667417 767.87609 68.5015s328.673807 454.215734 187.50589 699.37459-454.755734 328.673807-699.37559 187.50589z m25.862985-44.720974C502.243246 1037.819932 784.040081 962.385976 911.200006 742.013105s51.72597-502.169706-168.646901-629.329631-502.170706-51.18697-629.329631 169.185901-51.72597 501.631706 168.646901 628.791631z" fill="#F4F4F4" p-id="151786"></path><path d="M48.565512 501.165246l404.106763 233.843863L336.290343 937.599991c-18.857989-8.081995-37.716978-17.24199-56.035967-27.479984C129.925464 822.836058 46.409513 663.887151 48.565512 501.166246z" fill="#A6CBFD" p-id="151787"></path><path d="M738.241107 911.200006c-88.902948 53.879968-193.431887 74.893956-296.344826 59.268965l98.601942-177.807895L738.241107 911.200006z" fill="#CEEA98" p-id="151788"></path><path d="M59.340505 395.020309c10.237994-39.871977 26.402985-79.205954 48.493972-116.921932 94.829944-161.642905 274.792839-245.158856 452.599735-226.839867l-276.409838 471.459724L59.342505 395.018309zM666.580149 75.504496c26.400985 9.159995 52.802969 21.552987 78.126955 36.099979 220.372871 128.236925 296.345826 412.189758 168.647901 633.640628-21.552987 37.716978-47.953972 71.661958-77.588955 100.756941L377.240319 579.8312l289.33983-504.325704z" fill="#EDEAE1" p-id="151789"></path><path d="M692.443134 707.530125C855.703039 663.346151 937.599991 629.401171 937.599991 606.771184c0-34.48398-109.916936-62.501963-245.157857-62.501963s-245.158856 28.017984-245.158856 62.501963c0 22.629987 81.899952 56.574967 245.158856 100.756941z" fill="#DDDDDD" p-id="151790"></path><path d="M699.98613 705.374127c158.409907-169.185901 237.614861-300.655824 237.614861-393.86977 0-142.245917-109.916936-257.550849-245.157857-257.550849s-245.158856 115.304932-245.158856 257.549849c0 93.214945 79.204954 224.684868 237.614861 393.87077 3.771998 4.309997 10.237994 4.309997 15.086991 0-0.539 0.539-0.539 0.539 0 0z" fill="#24C688" p-id="151791"></path><path d="M587.375196 274.865379a107.761937 107.761937 0 1 0 215.523874 0 107.761937 107.761937 0 1 0-215.523874 0z" fill="#FFFFFF" p-id="151792"></path></svg>